<svg width="16" height="16" viewBox="0 0 16 16" fill="none" xmlns="http://www.w3.org/2000/svg">
<path fill-rule="evenodd" clip-rule="evenodd" d="M0 13C0 14.1046 0.89543 15 2 15H3.5C3.77614 15 4 14.7762 4 14.5V8.50474C4 8.22859 4.22386 8.00474 4.5 8.00474H6.5C6.77614 8.00474 7 8.22859 7 8.50474V14.5C7 14.7762 7.22386 15 7.5 15H14C15.1046 15 16 14.1046 16 13V3.4668C16 2.36223 15.1046 1.4668 14 1.4668C13.8611 1.4668 13.7225 1.48128 13.5865 1.51L1.58654 3.62296C0.661735 3.81837 0 4.63453 0 5.57975V13ZM10 5.00005H11V6.00005H10V5.00005ZM12 5.00005H13V6.00005H12V5.00005ZM10 7.00005H11V8.00005H10V7.00005ZM12 7.00005H13V8.00005H12V7.00005Z" fill="#1170CF"/>
</svg>
