<svg width="13" height="16" viewBox="0 0 13 16" fill="none" xmlns="http://www.w3.org/2000/svg">
<path fill-rule="evenodd" clip-rule="evenodd" d="M7.79639 1H2.12487C1.55566 1 1.09369 1.448 1.09369 2V10.5C1.09369 10.776 0.8627 11 0.578093 11C0.293485 11 0.0625 10.776 0.0625 10.5V2C0.0625 0.897 0.987473 0 2.12487 0H7.79639C8.08099 0 8.31198 0.224 8.31198 0.5C8.31198 0.776 8.08099 1 7.79639 1ZM10.3743 2C11.5117 2 12.4367 2.897 12.4367 4V14C12.4367 15.103 11.5117 16 10.3743 16H4.18724C3.04984 16 2.12487 15.103 2.12487 14V4C2.12487 2.897 3.04984 2 4.18724 2H10.3743ZM11.4055 14V4C11.4055 3.448 10.9436 3 10.3743 3H4.18724C3.61803 3 3.15606 3.448 3.15606 4V14C3.15606 14.552 3.61803 15 4.18724 15H10.3743C10.9436 15 11.4055 14.552 11.4055 14Z" fill="#0076D5"/>
</svg>
