<svg width="350" height="350" viewBox="0 0 350 350" fill="none" xmlns="http://www.w3.org/2000/svg">
<g opacity="0.5">
<path d="M345.846 177C345.846 266.957 270.284 340 176.923 340C83.5624 340 8 266.957 8 177C8 87.0435 83.5624 14 176.923 14C270.284 14 345.846 87.0435 345.846 177Z" fill="white" stroke="#93BEE9" stroke-width="4"/>
</g>
<g opacity="0.5">
<circle cx="12" cy="216" r="12" fill="#00AB50"/>
<path fill-rule="evenodd" clip-rule="evenodd" d="M7.48733 216.756C7.57324 216.756 7.64288 216.825 7.64288 216.911C7.64288 216.997 7.57324 217.067 7.48733 217.067H7.01268C6.84086 217.067 6.70157 217.206 6.70157 217.378V220.178C6.70157 220.35 6.84086 220.489 7.01268 220.489H16.9842C17.156 220.489 17.2953 220.35 17.2953 220.178V217.378C17.2953 217.206 17.156 217.067 16.9842 217.067H16.5095C16.4236 217.067 16.354 216.997 16.354 216.911C16.354 216.825 16.4236 216.756 16.5095 216.756H17.2873C17.4591 216.756 17.5984 216.895 17.5984 217.067V220.489C17.5984 220.661 17.4591 220.8 17.2873 220.8H6.70955C6.53773 220.8 6.39844 220.661 6.39844 220.489V217.067C6.39844 216.895 6.53773 216.756 6.70955 216.756H7.48733ZM14.2487 216.756C15.5809 216.756 16.6651 215.658 16.6651 214.309C16.6651 212.96 15.5809 211.862 14.2487 211.862C14.1519 211.862 14.0496 211.871 13.9267 211.887C13.8859 211.893 13.8443 211.881 13.8113 211.857C13.7783 211.831 13.7568 211.794 13.7512 211.753C13.6147 210.703 12.723 209.911 11.6767 209.911C10.5219 209.911 9.58204 210.863 9.58204 212.032C9.58204 212.124 9.5895 212.221 9.6063 212.337C9.61284 212.383 9.59884 212.429 9.56804 212.463C9.53724 212.497 9.49244 212.519 9.4467 212.515H9.44453C8.26977 212.515 7.33177 213.466 7.33177 214.634C7.33177 215.804 8.27133 216.756 9.42648 216.756H14.2487ZM14.2487 211.551C15.7526 211.551 16.9762 212.789 16.9762 214.309C16.9762 215.83 15.7526 217.067 14.2487 217.067H9.42648C8.09959 217.067 7.02066 215.976 7.02066 214.634C7.02066 213.343 8.02026 212.284 9.27808 212.207C9.27342 212.146 9.27093 212.088 9.27093 212.032C9.27093 210.691 10.3502 209.6 11.6767 209.6C12.8279 209.6 13.8159 210.433 14.0353 211.562C14.1112 211.555 14.1806 211.551 14.2487 211.551ZM10.278 217.736H10.5891L9.78644 219.976H9.39133L8.57622 217.736H8.91222L9.59044 219.677L10.278 217.736ZM11.2004 217.736H11.9284C12.4915 217.736 12.8058 217.991 12.8058 218.464C12.8058 218.918 12.504 219.176 11.916 219.176H11.5178V219.976H11.2004V217.736ZM11.9347 217.994H11.5178V218.918H11.9222C12.3173 218.918 12.476 218.756 12.476 218.464C12.476 218.168 12.2862 217.994 11.9347 217.994ZM14.45 219.755C14.814 219.755 15.0815 219.509 15.1002 219.185H15.4207C15.3958 219.621 15.0131 220.022 14.4438 220.022C13.8184 220.022 13.4171 219.602 13.4171 218.856C13.4171 218.1 13.8527 217.689 14.4687 217.689C15.0069 217.689 15.3864 218.044 15.4175 218.454H15.0971C15.0567 218.149 14.814 217.953 14.4687 217.953C14.0393 217.953 13.7407 218.249 13.7407 218.856C13.7407 219.434 14.03 219.755 14.45 219.755Z" fill="white"/>
<circle cx="36" cy="83" r="12" fill="#00AB50"/>
<path fill-rule="evenodd" clip-rule="evenodd" d="M31.0125 85.3751H39.7875C40.3467 85.3751 40.8 85.8284 40.8 86.3876C40.8 86.9468 40.3467 87.4001 39.7875 87.4001H31.0125C30.4533 87.4001 30 86.9468 30 86.3876C30 85.8284 30.4533 85.3751 31.0125 85.3751ZM32.025 86.0501V86.7251H32.7V86.0501H32.025ZM34.05 86.0501V86.7251H34.725V86.0501H34.05ZM36.075 86.0501V86.7251H36.75V86.0501H36.075ZM38.1 86.0501V86.7251H38.775V86.0501H38.1ZM38.0998 77.7505V84.0251C38.0998 84.2115 37.9487 84.3626 37.7623 84.3626C37.5759 84.3626 37.4248 84.2115 37.4248 84.0251V77.7524L35.9762 79.2012C35.8444 79.333 35.6307 79.3331 35.4989 79.2013C35.3671 79.0695 35.367 78.8558 35.4988 78.724L37.5237 76.699C37.6553 76.5673 37.8687 76.5671 38.0006 76.6986L40.0323 78.7236C40.1643 78.8551 40.1647 79.0688 40.0331 79.2009C39.9015 79.3329 39.6878 79.3332 39.5558 79.2016L38.0998 77.7505ZM32.7067 83.5497V76.9376C32.7067 76.7512 32.8578 76.6001 33.0442 76.6001C33.2306 76.6001 33.3817 76.7512 33.3817 76.9376V83.5478L34.8304 82.099C34.9622 81.9672 35.1759 81.9671 35.3077 82.0989C35.4395 82.2307 35.4395 82.4444 35.3077 82.5762L33.2829 84.6012C33.1512 84.7329 32.9378 84.7331 32.8059 84.6016L30.7742 82.5766C30.6422 82.4451 30.6419 82.2314 30.7735 82.0993C30.905 81.9673 31.1187 81.967 31.2508 82.0986L32.7067 83.5497Z" fill="white"/>
<circle cx="177" cy="12" r="12" fill="#00AB50"/>
<path fill-rule="evenodd" clip-rule="evenodd" d="M181.483 10.3114C180.462 10.6266 178.915 10.7999 176.994 10.7999C176.575 10.7999 176.176 10.7927 175.797 10.7786C172.616 10.7098 171.137 10.314 171.137 9.46654V9.27696C171.137 9.27299 171.137 9.26902 171.137 9.26504V8.02771C171.137 7.79086 171.273 7.58576 171.509 7.40963C171.546 7.38184 171.589 7.365 171.633 7.35913C172.46 6.83159 174.292 6.5332 176.88 6.5332C180.544 6.5332 182.87 7.11993 182.87 8.0839V9.23893C182.87 9.68351 182.375 10.0478 181.483 10.3114ZM181.597 7.60247C180.689 7.30809 179.007 7.06654 176.88 7.06654C175.221 7.06654 174.255 7.20081 173.169 7.43653C172.836 7.50869 172.555 7.58934 172.328 7.67052C173.134 7.97373 174.562 8.1332 176.88 8.1332C179.366 8.1332 180.828 7.94983 181.597 7.60247ZM182.294 9.35172C182.315 9.29553 182.318 9.24386 182.318 9.19987V8.39987C182.318 8.23724 182.234 8.09604 182.073 7.95124C181.191 8.44287 179.715 8.66654 176.88 8.66654C174.094 8.66654 172.625 8.4504 171.733 7.9761C171.691 8.01591 171.669 8.05236 171.669 8.0839V9.27875C171.672 9.45018 171.739 9.72301 172.739 9.92217C173.548 10.0831 174.575 10.1926 175.705 10.24C176.073 10.2507 176.464 10.2563 176.88 10.2563C179.863 10.2563 181.971 9.78132 182.294 9.35172ZM181.933 11.1428C182.027 11.0726 182.156 11.0726 182.251 11.1427C182.626 11.4223 182.851 11.7079 182.851 12.1332V12.9332C182.851 13.9324 180.572 14.5332 176.994 14.5332C173.338 14.5332 171.137 13.989 171.137 12.9984V11.761C171.137 11.5242 171.273 11.3191 171.509 11.143C171.603 11.0726 171.733 11.0725 171.827 11.1428C172.461 11.6149 173.968 11.8665 176.88 11.8665C179.792 11.8665 181.299 11.6149 181.933 11.1428ZM176.88 12.3999C174.059 12.3999 172.588 12.1782 171.699 11.6913C171.678 11.7196 171.669 11.7431 171.669 11.761V12.9984C171.669 13.1687 171.712 13.451 172.739 13.6555C173.846 13.8759 175.364 13.9999 176.994 13.9999C178.604 13.9999 180.125 13.8629 181.244 13.6237C182.27 13.4046 182.318 13.1081 182.318 12.9332V12.1332C182.318 11.9706 182.234 11.8294 182.073 11.6846C181.191 12.1762 179.715 12.3999 176.88 12.3999ZM181.895 14.7728C181.952 14.7303 182.023 14.7123 182.094 14.7229C182.444 14.7757 182.676 14.9508 182.783 15.2085C182.838 15.3406 182.851 15.4477 182.851 15.5999V16.6282C182.851 17.6312 180.509 18.2665 176.974 18.2665C173.448 18.2665 171.137 17.6324 171.137 16.6282V15.3909C171.137 15.1543 171.273 14.9492 171.508 14.773C171.602 14.7023 171.732 14.7022 171.826 14.7728C172.496 15.2731 174.147 15.5999 176.861 15.5999C179.574 15.5999 181.225 15.2732 181.895 14.7728ZM182.11 15.2707C181.235 15.822 179.578 16.1332 176.861 16.1332C174.229 16.1332 172.626 15.8413 171.698 15.3223C171.678 15.35 171.669 15.3731 171.669 15.3909V16.6282C171.669 16.8061 171.719 17.1108 172.739 17.3383C173.862 17.5886 175.379 17.7332 176.974 17.7332C178.57 17.7332 180.097 17.5885 181.229 17.3382C182.26 17.1103 182.318 16.8047 182.318 16.6282V15.5999C182.318 15.5135 182.312 15.4636 182.292 15.4141C182.265 15.349 182.213 15.3008 182.11 15.2707Z" fill="white"/>
<circle cx="316" cy="79" r="12" fill="#00AB50"/>
<path fill-rule="evenodd" clip-rule="evenodd" d="M311.202 78.7523V78.7334C311.202 77.7025 312.037 76.8667 313.068 76.8667H314.402C314.696 76.8667 314.935 77.1055 314.935 77.4001V77.9334H315.735C315.882 77.9334 316.002 78.0528 316.002 78.2001C316.002 78.3473 315.882 78.4667 315.735 78.4667H314.935V79.5334H315.735C315.882 79.5334 316.002 79.6528 316.002 79.8001C316.002 79.9473 315.882 80.0667 315.735 80.0667H314.935V80.6001C314.935 80.8946 314.696 81.1334 314.402 81.1334H313.068C312.046 81.1334 311.216 80.312 311.202 79.2934C310.593 79.4168 310.135 79.9549 310.135 80.6001V81.0001C310.135 81.9574 310.911 82.7334 311.868 82.7334H322.135C322.282 82.7334 322.402 82.8528 322.402 83.0001C322.402 83.1473 322.282 83.2667 322.135 83.2667H311.868C310.616 83.2667 309.602 82.2519 309.602 81.0001V80.6001C309.602 79.6597 310.297 78.8817 311.202 78.7523ZM320.802 79.2478V79.2667C320.802 80.2977 319.966 81.1334 318.935 81.1334H317.602C317.307 81.1334 317.068 80.8946 317.068 80.6001V77.4001C317.068 77.1055 317.307 76.8667 317.602 76.8667H318.935C319.957 76.8667 320.787 77.6881 320.801 78.7068C321.41 78.5833 321.868 78.0452 321.868 77.4001V77.0001C321.868 76.0428 321.092 75.2667 320.135 75.2667H309.868C309.721 75.2667 309.602 75.1473 309.602 75.0001C309.602 74.8528 309.721 74.7334 309.868 74.7334H320.135C321.387 74.7334 322.402 75.7482 322.402 77.0001V77.4001C322.402 78.3405 321.706 79.1184 320.802 79.2478Z" fill="white"/>
<circle cx="338" cy="228" r="12" fill="#00AB50"/>
<path fill-rule="evenodd" clip-rule="evenodd" d="M343.975 228.983L343.98 233.108C343.98 234.019 343.241 234.758 342.33 234.758L334.08 234.775C333.168 234.775 332.43 234.036 332.43 233.125V224.875C332.43 223.964 333.168 223.225 334.08 223.225H334.9H335.313C335.541 223.225 335.725 223.41 335.725 223.637C335.725 223.865 335.541 224.05 335.313 224.05H334.9H334.08C333.624 224.05 333.255 224.419 333.255 224.875V233.125C333.255 233.58 333.624 233.95 334.08 233.95L342.33 233.933C342.785 233.933 343.155 233.563 343.155 233.108L343.151 229.432C343.15 229.426 343.15 229.419 343.15 229.412V228.587C343.15 228.36 343.335 228.175 343.563 228.175C343.791 228.175 343.975 228.36 343.975 228.587V228.983ZM335.313 229.415C335.313 229.188 335.497 229.003 335.725 229.003C335.953 229.003 336.138 229.188 336.138 229.415V232.715C336.138 232.943 335.953 233.128 335.725 233.128C335.497 233.128 335.313 232.943 335.313 232.715V229.415ZM337.788 227.765C337.788 227.538 337.972 227.353 338.2 227.353C338.428 227.353 338.613 227.538 338.613 227.765V232.715C338.613 232.943 338.428 233.128 338.2 233.128C337.972 233.128 337.788 232.943 337.788 232.715V227.765ZM340.263 230.24C340.263 230.013 340.447 229.828 340.675 229.828C340.903 229.828 341.088 230.013 341.088 230.24V232.715C341.088 232.943 340.903 233.128 340.675 233.128C340.447 233.128 340.263 232.943 340.263 232.715V230.24ZM341.544 227.951L339.432 223.757L338.57 225.496C338.5 225.637 338.357 225.726 338.2 225.726H336.963C336.735 225.726 336.55 225.541 336.55 225.313C336.55 225.085 336.735 224.901 336.963 224.901H337.944L339.059 222.65C339.21 222.346 339.644 222.344 339.797 222.648L341.914 226.852L342.801 225.108C342.871 224.969 343.013 224.882 343.168 224.882H344.377C344.605 224.882 344.79 225.067 344.79 225.294C344.79 225.522 344.605 225.707 344.377 225.707H343.422L342.28 227.952C342.127 228.254 341.696 228.253 341.544 227.951Z" fill="white"/>
<circle cx="179" cy="338" r="12" fill="#00AB50"/>
<path fill-rule="evenodd" clip-rule="evenodd" d="M182.098 336.35C182.898 336.35 183.548 336.999 183.548 337.8V342.15C183.548 342.951 182.898 343.6 182.098 343.6H176.298C175.497 343.6 174.848 342.951 174.848 342.15V337.8C174.848 336.999 175.497 336.35 176.298 336.35V334.9C176.298 333.305 177.603 332 179.198 332C180.793 332 182.098 333.305 182.098 334.9V336.35ZM181.373 336.35V334.9C181.373 333.701 180.397 332.725 179.198 332.725C177.999 332.725 177.023 333.701 177.023 334.9V336.35H181.373ZM176.298 337.075C175.897 337.075 175.573 337.4 175.573 337.8V342.15C175.573 342.55 175.897 342.875 176.298 342.875H182.098C182.498 342.875 182.823 342.55 182.823 342.15V337.8C182.823 337.4 182.498 337.075 182.098 337.075H176.298Z" fill="white"/>
</g>
<path d="M277 178.5C277 231.177 232.743 274 178 274C123.257 274 79 231.177 79 178.5C79 125.823 123.257 83 178 83C232.743 83 277 125.823 277 178.5Z" fill="white" stroke="#93BEE9" stroke-width="4"/>
<path d="M130.766 159.775C130.516 156.475 127.466 153.625 123.141 153.625C118.191 153.625 114.691 156.925 114.691 163C114.691 169 117.916 172.375 122.941 172.375C127.516 172.375 130.591 169.15 130.791 165.65H128.216C128.066 168.25 125.916 170.225 122.991 170.225C119.616 170.225 117.291 167.65 117.291 163C117.291 158.125 119.691 155.75 123.141 155.75C125.916 155.75 127.866 157.325 128.191 159.775H130.766ZM136.579 156.825V154H133.879V156.825H136.579ZM136.429 172V159H134.029V172H136.429ZM139.438 168.275C139.663 170.775 141.788 172.375 145.038 172.375C148.488 172.375 150.463 170.675 150.463 168.3C150.463 165.625 148.463 164.775 145.438 164.1C142.938 163.55 142.413 163.1 142.413 162.1C142.413 161.2 143.213 160.525 145.013 160.525C146.663 160.525 147.638 161.225 147.913 162.425H150.363C149.938 160.05 147.938 158.625 145.038 158.625C141.763 158.625 139.988 160.1 139.988 162.325C139.988 164.25 141.213 165.4 144.263 166.075C146.588 166.6 148.038 166.95 148.038 168.475C148.038 169.6 147.013 170.475 145.063 170.475C143.238 170.475 142.163 169.825 141.888 168.275H139.438ZM162.181 167.825C161.931 169.45 160.756 170.35 159.156 170.35C157.131 170.35 155.506 168.85 155.506 165.675C155.506 162.225 157.006 160.65 159.131 160.65C160.656 160.65 161.731 161.425 162.056 162.85H164.706C164.281 160.2 162.031 158.625 159.081 158.625C155.406 158.625 152.956 161.25 152.956 165.6C152.956 170 155.656 172.375 159.106 172.375C162.331 172.375 164.456 170.35 164.806 167.825H162.181ZM167.299 165.5C167.299 170 170.074 172.375 173.699 172.375C177.374 172.375 180.124 170.05 180.124 165.5C180.124 160.825 177.274 158.625 173.724 158.625C170.199 158.625 167.299 160.825 167.299 165.5ZM169.799 165.5C169.799 162.25 171.499 160.575 173.724 160.575C175.949 160.575 177.624 162.2 177.624 165.5C177.624 168.725 176.049 170.425 173.749 170.425C171.499 170.425 169.799 168.725 169.799 165.5ZM191.488 154V172H197.163C202.438 172 206.188 168.825 206.188 163C206.188 156.825 202.638 154 197.338 154H191.488ZM197.363 156.025C201.213 156.025 203.613 158.275 203.613 163C203.613 167.525 201.363 169.9 197.413 169.9H194.038V156.025H197.363ZM221.638 154V168.95L213.063 154H209.688V172H212.013V156.925L220.688 172H223.913V154H221.638ZM243.932 172L236.557 154H233.682L226.282 172H228.957L230.757 167.45H239.332L241.107 172H243.932ZM235.082 156.55L238.507 165.375H231.582L235.082 156.55ZM155.851 193.775C155.601 190.475 152.551 187.625 148.226 187.625C143.276 187.625 139.776 190.925 139.776 197C139.776 203 143.001 206.375 148.026 206.375C152.601 206.375 155.676 203.15 155.876 199.65H153.301C153.151 202.25 151.001 204.225 148.076 204.225C144.701 204.225 142.376 201.65 142.376 197C142.376 192.125 144.776 189.75 148.226 189.75C151.001 189.75 152.951 191.325 153.276 193.775H155.851ZM167.964 202.25C167.589 203.45 166.389 204.35 164.814 204.35C162.639 204.35 161.014 203.025 160.814 200.025H170.714C170.714 194.775 168.214 192.625 164.614 192.625C161.014 192.625 158.364 194.975 158.364 199.5C158.364 204.075 161.039 206.375 164.739 206.375C167.864 206.375 169.914 204.625 170.564 202.25H167.964ZM160.914 198.125C161.289 195.725 162.739 194.55 164.664 194.55C166.664 194.55 168.089 195.7 168.264 198.125H160.914ZM176.491 206V197.975C176.491 195.925 177.991 194.675 179.716 194.675C181.491 194.675 182.491 195.6 182.491 197.55V206H184.891V197.525C184.891 194.35 183.116 192.625 180.291 192.625C178.741 192.625 177.291 193.325 176.341 194.65L176.066 193H174.091V206H176.491ZM194.576 204.075C193.851 204.25 193.526 204.275 193.101 204.275C192.201 204.275 191.726 203.8 191.726 202.825V195.05H194.526V193H191.726V189.875H189.476L189.326 193H187.401V195.05H189.326V202.775C189.326 204.925 190.501 206.375 192.801 206.375C193.401 206.375 193.926 206.3 194.576 206.125V204.075ZM206.06 202.25C205.685 203.45 204.485 204.35 202.91 204.35C200.735 204.35 199.11 203.025 198.91 200.025H208.81C208.81 194.775 206.31 192.625 202.71 192.625C199.11 192.625 196.46 194.975 196.46 199.5C196.46 204.075 199.135 206.375 202.835 206.375C205.96 206.375 208.01 204.625 208.66 202.25H206.06ZM199.01 198.125C199.385 195.725 200.835 194.55 202.76 194.55C204.76 194.55 206.185 195.7 206.36 198.125H199.01ZM214.588 206V199.475C214.588 196.2 216.038 194.975 217.688 194.975C218.263 194.975 218.738 195.075 219.213 195.2V192.8C218.913 192.725 218.413 192.625 217.788 192.625C216.338 192.625 215.213 193.425 214.488 194.925L214.163 193H212.188V206H214.588Z" fill="black"/>
<circle cx="183" cy="85" r="30" fill="#F5F6F7"/>
<path fill-rule="evenodd" clip-rule="evenodd" d="M177.75 78.75V76.8333C177.75 76.3041 178.179 75.875 178.708 75.875H188.292C188.821 75.875 189.25 76.3041 189.25 76.8333V78.75H192.125C193.713 78.75 195 80.0372 195 81.625V89.7708C195 90.0355 194.785 90.25 194.521 90.25H189.948L192.456 92.3888C192.775 92.6605 192.549 93.125 192.098 93.125H174.902C174.451 93.125 174.225 92.6605 174.544 92.3888L177.052 90.25H172.479C172.215 90.25 172 90.0355 172 89.7708V81.625C172 80.0372 173.287 78.75 174.875 78.75H177.75ZM179.188 78.75H187.812V77.7917C187.812 77.527 187.598 77.3125 187.333 77.3125H179.667C179.402 77.3125 179.188 77.527 179.188 77.7917V78.75ZM178.561 90.25L176.936 91.6875H190.127L188.45 90.25H178.561ZM188.052 88.8125H193.083C193.348 88.8125 193.562 88.598 193.562 88.3333V82.1043C193.562 81.0457 192.704 80.1876 191.646 80.1876H175.354C174.296 80.1876 173.438 81.0457 173.438 82.1043V88.3333C173.438 88.598 173.652 88.8125 173.917 88.8125H178.948H188.052ZM186.773 88.8125H180.186H186.773ZM179.608 87.1284C179.037 87.356 178.388 87.2221 177.955 86.7887L177.208 86.0422C176.93 85.7634 176.798 85.3792 176.847 84.9885C176.882 84.7059 177.008 84.451 177.203 84.2557C177.276 84.1826 177.359 84.1179 177.451 84.0636C178.928 83.1846 181.106 82.6814 183.428 82.6809C185.75 82.6809 187.929 83.1849 189.405 84.0633C189.739 84.2632 189.96 84.6002 190.008 84.9883C190.057 85.379 189.926 85.7639 189.647 86.0427L188.901 86.7891C188.467 87.2231 187.818 87.3563 187.249 87.1293L186.311 86.7554C185.816 86.5581 185.436 86.1557 185.268 85.6505L185.078 85.0813C185.068 85.0496 185.04 85.0283 185.005 85.0237C184.113 84.9125 182.932 84.9169 181.844 85.0359L181.587 85.6511C181.418 86.1562 181.039 86.5573 180.544 86.7558L179.608 87.1284Z" fill="#535B62"/>
<circle cx="183" cy="269" r="30" fill="#E9EBEC"/>
<path fill-rule="evenodd" clip-rule="evenodd" d="M186.21 275.792H187.147C188.355 275.792 189.335 276.771 189.335 277.979V280.896C189.335 282.104 188.355 283.083 187.147 283.083H184.23C183.022 283.083 182.043 282.104 182.043 280.896V277.979C182.043 276.771 183.022 275.792 184.23 275.792H184.719L184.394 274.265C184.103 274.31 183.805 274.333 183.501 274.333C181.709 274.333 180.105 273.525 179.035 272.252L176.079 274.091C176.164 274.4 176.21 274.726 176.21 275.062C176.21 277.076 174.577 278.708 172.564 278.708C170.55 278.708 168.918 277.076 168.918 275.062C168.918 273.049 170.55 271.417 172.564 271.417C173.717 271.417 174.745 271.952 175.413 272.787L178.243 271.028C177.874 270.263 177.668 269.405 177.668 268.5C177.668 266.756 178.433 265.191 179.646 264.122L177.311 260.71C176.754 261.054 176.183 261.208 175.48 261.208C173.467 261.208 171.835 259.576 171.835 257.562C171.835 255.549 173.467 253.917 175.48 253.917C177.494 253.917 179.126 255.549 179.126 257.562C179.126 258.338 178.836 259.148 178.424 259.739L180.852 263.301C181.647 262.895 182.547 262.667 183.501 262.667C184.254 262.667 184.973 262.809 185.633 263.068L186.734 261.169C185.723 260.976 184.96 260.088 184.96 259.021V256.104C184.96 254.896 185.939 253.917 187.147 253.917H190.064C191.272 253.917 192.251 254.896 192.251 256.104V259.021C192.251 260.229 191.272 261.208 190.064 261.208H188.397L186.913 263.768C188.38 264.827 189.335 266.552 189.335 268.5C189.335 268.776 189.315 269.047 189.278 269.313L190.99 269.502C191.482 268.07 192.84 267.042 194.439 267.042C196.452 267.042 198.085 268.674 198.085 270.687C198.085 272.701 196.452 274.333 194.439 274.333C192.513 274.333 190.936 272.84 190.802 270.949L188.89 270.738C188.307 272.139 187.193 273.265 185.8 273.863L186.21 275.792ZM172.564 277.25C173.772 277.25 174.751 276.27 174.751 275.062C174.751 273.854 173.772 272.875 172.564 272.875C171.356 272.875 170.376 273.854 170.376 275.062C170.376 276.27 171.356 277.25 172.564 277.25ZM194.439 272.875C195.647 272.875 196.626 271.895 196.626 270.687C196.626 269.479 195.647 268.5 194.439 268.5C193.231 268.5 192.251 269.479 192.251 270.687C192.251 271.895 193.231 272.875 194.439 272.875ZM183.501 272.875C185.918 272.875 187.876 270.916 187.876 268.5C187.876 266.084 185.918 264.125 183.501 264.125C181.085 264.125 179.126 266.084 179.126 268.5C179.126 270.916 181.085 272.875 183.501 272.875ZM175.48 259.75C176.689 259.75 177.668 258.77 177.668 257.562C177.668 256.354 176.689 255.375 175.48 255.375C174.272 255.375 173.293 256.354 173.293 257.562C173.293 258.77 174.272 259.75 175.48 259.75ZM187.147 255.375C186.744 255.375 186.418 255.701 186.418 256.104V259.021C186.418 259.423 186.744 259.75 187.147 259.75H190.064C190.467 259.75 190.793 259.423 190.793 259.021V256.104C190.793 255.701 190.467 255.375 190.064 255.375H187.147ZM184.23 277.25C183.828 277.25 183.501 277.576 183.501 277.979V280.896C183.501 281.298 183.828 281.625 184.23 281.625H187.147C187.55 281.625 187.876 281.298 187.876 280.896V277.979C187.876 277.576 187.55 277.25 187.147 277.25H184.23Z" fill="#545454"/>
<circle cx="276" cy="180" r="30" fill="#F5F6F7"/>
<path fill-rule="evenodd" clip-rule="evenodd" d="M283.75 175.875C285.752 175.875 287.375 177.498 287.375 179.5V190.375C287.375 192.377 285.752 194 283.75 194H269.25C267.248 194 265.625 192.377 265.625 190.375V179.5C265.625 177.498 267.248 175.875 269.25 175.875V172.25C269.25 168.262 272.512 165 276.5 165C280.488 165 283.75 168.262 283.75 172.25V175.875ZM281.938 175.875V172.25C281.938 169.252 279.498 166.812 276.5 166.812C273.502 166.812 271.062 169.252 271.062 172.25V175.875H281.938ZM269.25 177.688C268.249 177.688 267.438 178.499 267.438 179.5V190.375C267.438 191.376 268.249 192.188 269.25 192.188H283.75C284.751 192.188 285.562 191.376 285.562 190.375V179.5C285.562 178.499 284.751 177.688 283.75 177.688H269.25Z" fill="#535B62"/>
<circle cx="77" cy="180" r="30" fill="#E9EBEC"/>
<path fill-rule="evenodd" clip-rule="evenodd" d="M88.5 177H65.5V185H88.5V177ZM89.5 177V185H91V177H89.5ZM64.5 177H63V185H64.5V177ZM63 175H91C92.1046 175 93 175.895 93 177V185C93 186.105 92.1046 187 91 187H63C61.8954 187 61 186.105 61 185V177C61 175.895 61.8954 175 63 175ZM67 179H69V181H67V179ZM71 179H73V181H71V179ZM75 179H77V181H75V179ZM79 179H81V181H79V179Z" fill="#545454"/>
</svg>
