<svg width="16" height="16" viewBox="0 0 16 16" fill="none" xmlns="http://www.w3.org/2000/svg">
<path fill-rule="evenodd" clip-rule="evenodd" d="M4.44423 3.111V1.77778C4.44423 0.795938 5.24017 0 6.222 0H13.3331C14.315 0 15.1109 0.795938 15.1109 1.77778V14.2222C15.1109 15.2041 14.315 16 13.3331 16H6.222C5.24017 16 4.44423 15.2041 4.44423 14.2222V12.8853C4.44423 12.6398 4.64321 12.4409 4.88867 12.4409C5.13413 12.4409 5.33312 12.6398 5.33312 12.8853V14.2222C5.33312 14.7131 5.73108 15.1111 6.222 15.1111H13.3331C13.824 15.1111 14.222 14.7131 14.222 14.2222V1.77778C14.222 1.28686 13.824 0.888889 13.3331 0.888889H6.222C5.73108 0.888889 5.33312 1.28686 5.33312 1.77778V3.111C5.33312 3.35646 5.13413 3.55545 4.88867 3.55545C4.64321 3.55545 4.44423 3.35646 4.44423 3.111ZM2.50709 8.43377L5.18003 10.7735C5.36472 10.9352 5.38339 11.216 5.22172 11.4007C5.06004 11.5854 4.77926 11.604 4.59456 11.4424L1.0774 8.36364C1.04903 8.34366 1.02257 8.32001 0.9987 8.29274C0.924474 8.20794 0.888261 8.10289 0.888675 7.99841C0.888261 7.89393 0.924474 7.78888 0.9987 7.70409C1.02257 7.67682 1.04903 7.65317 1.0774 7.63318L4.59456 4.55447C4.77926 4.3928 5.06004 4.41147 5.22172 4.59616C5.38339 4.78086 5.36472 5.06165 5.18003 5.22332L2.52784 7.54488H8.41846C8.66392 7.54488 8.8629 7.74387 8.8629 7.98933C8.8629 8.23479 8.66392 8.43377 8.41846 8.43377H2.50709Z" fill="#1170CF"/>
</svg>
