<svg width="16" height="16" viewBox="0 0 16 16" fill="none" xmlns="http://www.w3.org/2000/svg">
<path fill-rule="evenodd" clip-rule="evenodd" d="M8 16C3.58172 16 0 12.4183 0 8C0 3.58172 3.58172 0 8 0C12.4183 0 16 3.58172 16 8C16 12.4183 12.4183 16 8 16ZM4.53349 10H6.5C6.77614 10 7 9.77614 7 9.5C7 9.22386 6.77614 9 6.5 9H3.76663C3.75889 8.99982 3.75114 8.99982 3.74337 9H3.5C3.22386 9 3 9.22386 3 9.5V12.5C3 12.7761 3.22386 13 3.5 13C3.77614 13 4 12.7761 4 12.5V11.003C4.92323 12.2311 6.38798 13 7.99894 13C10.1349 13 12.0139 11.6483 12.7143 9.66662C12.8063 9.40627 12.6699 9.1206 12.4095 9.02858C12.1491 8.93656 11.8635 9.07302 11.7715 9.33338C11.2112 10.9185 9.70783 12 7.99894 12C6.54209 12 5.2346 11.214 4.53349 10ZM11.4644 6H9.5C9.22386 6 9 6.22386 9 6.5C9 6.77614 9.22386 7 9.5 7H12.2313C12.239 7.00018 12.2467 7.00018 12.2545 7H12.5C12.7761 7 13 6.77614 13 6.5V3.5C13 3.22386 12.7761 3 12.5 3C12.2239 3 12 3.22386 12 3.5V4.99981C11.0769 3.77005 9.61113 3 7.99894 3C5.86295 3 3.984 4.35172 3.28358 6.33338C3.19156 6.59373 3.32802 6.8794 3.58838 6.97142C3.84874 7.06344 4.1344 6.92698 4.22642 6.66662C4.78667 5.08153 6.29005 4 7.99894 4C9.45579 4 10.7633 4.78603 11.4644 6Z" fill="#063A75"/>
</svg>
