<svg width="378" height="379" viewBox="0 0 378 379" fill="none" xmlns="http://www.w3.org/2000/svg">
<path d="M359.846 190C359.846 279.957 284.284 353 190.923 353C97.5624 353 22 279.957 22 190C22 100.043 97.5624 27 190.923 27C284.284 27 359.846 100.043 359.846 190Z" fill="white" stroke="#93BEE9" stroke-width="4"/>
<path d="M152.296 100L145.312 82.72H143.104L136.096 100H138.064L139.912 95.368H148.408L150.208 100H152.296ZM144.184 84.592L147.784 93.808H140.512L144.184 84.592ZM173.931 82.72L169.875 97.84L165.747 82.72H163.323L159.051 97.888L155.019 82.72H153.099L157.755 100H160.155L164.475 84.664L168.723 100H171.003L175.683 82.72H173.931ZM177.077 95.368C177.581 98.464 180.293 100.36 183.941 100.36C188.165 100.36 190.541 98.08 190.541 95.368C190.541 92.68 189.053 91.24 184.349 90.04C180.389 89.056 179.621 88.216 179.621 86.608C179.621 85.096 180.917 83.944 183.821 83.944C186.509 83.944 188.189 85.024 188.549 86.848H190.493C189.989 84.04 187.349 82.36 183.797 82.36C179.885 82.36 177.725 84.208 177.725 86.704C177.725 89.104 179.069 90.544 183.029 91.528C187.709 92.68 188.645 93.592 188.645 95.44C188.645 97.36 187.013 98.776 183.917 98.776C181.229 98.776 179.381 97.552 179.021 95.368H177.077ZM201.818 82.72V100H203.69V82.72H201.818ZM209.646 100V92.272C209.646 90.04 211.326 88.672 213.102 88.672C214.998 88.672 216.102 89.728 216.102 91.72V100H217.878V91.672C217.878 88.816 216.198 87.16 213.51 87.16C211.926 87.16 210.414 87.928 209.55 89.392L209.334 87.52H207.87V100H209.646ZM227.607 82.648C226.983 82.48 226.383 82.36 225.639 82.36C223.743 82.36 222.447 83.584 222.447 85.576V87.52H220.599V89.056H222.447V100H224.223V89.056H227.031V87.52H224.223V85.48C224.223 84.472 224.775 83.896 225.735 83.896C226.263 83.896 226.911 83.992 227.607 84.184V82.648ZM231.529 100V93.448C231.529 90.376 233.017 88.888 234.721 88.888C235.249 88.888 235.681 88.984 236.113 89.104V87.328C235.825 87.256 235.345 87.16 234.793 87.16C233.329 87.16 232.129 87.976 231.457 89.656L231.217 87.52H229.753V100H231.529ZM240.036 90.88C240.204 89.488 241.284 88.576 243.18 88.576C245.172 88.576 246.348 89.584 246.348 91.24V92.104L242.628 92.728C239.196 93.304 237.876 94.6 237.876 96.808C237.876 98.944 239.532 100.36 242.124 100.36C244.236 100.36 245.652 99.328 246.444 98.104L246.66 100H248.124V91.36C248.124 88.816 246.276 87.16 243.252 87.16C240.324 87.16 238.38 88.648 238.164 90.88H240.036ZM246.348 95.488C246.348 97.432 244.428 98.848 242.556 98.848C240.828 98.848 239.748 98.08 239.748 96.64C239.748 95.344 240.492 94.528 243.108 94.072L246.348 93.52V95.488Z" fill="black"/>
<g opacity="0.5">
<circle cx="190.5" cy="189.5" r="69.5" fill="white" stroke="#93BEE9" stroke-width="4"/>
<path d="M148.284 173.242C148.064 170.338 145.38 167.83 141.574 167.83C137.218 167.83 134.138 170.734 134.138 176.08C134.138 181.36 136.976 184.33 141.398 184.33C145.424 184.33 148.13 181.492 148.306 178.412H146.04C145.908 180.7 144.016 182.438 141.442 182.438C138.472 182.438 136.426 180.172 136.426 176.08C136.426 171.79 138.538 169.7 141.574 169.7C144.016 169.7 145.732 171.086 146.018 173.242H148.284ZM153.46 170.646V168.16H151.084V170.646H153.46ZM153.328 184V172.56H151.216V184H153.328ZM156.035 180.722C156.233 182.922 158.103 184.33 160.963 184.33C163.999 184.33 165.737 182.834 165.737 180.744C165.737 178.39 163.977 177.642 161.315 177.048C159.115 176.564 158.653 176.168 158.653 175.288C158.653 174.496 159.357 173.902 160.941 173.902C162.393 173.902 163.251 174.518 163.493 175.574H165.649C165.275 173.484 163.515 172.23 160.963 172.23C158.081 172.23 156.519 173.528 156.519 175.486C156.519 177.18 157.597 178.192 160.281 178.786C162.327 179.248 163.603 179.556 163.603 180.898C163.603 181.888 162.701 182.658 160.985 182.658C159.379 182.658 158.433 182.086 158.191 180.722H156.035ZM176.109 180.326C175.889 181.756 174.855 182.548 173.447 182.548C171.665 182.548 170.235 181.228 170.235 178.434C170.235 175.398 171.555 174.012 173.425 174.012C174.767 174.012 175.713 174.694 175.999 175.948H178.331C177.957 173.616 175.977 172.23 173.381 172.23C170.147 172.23 167.991 174.54 167.991 178.368C167.991 182.24 170.367 184.33 173.403 184.33C176.241 184.33 178.111 182.548 178.419 180.326H176.109ZM180.673 178.28C180.673 182.24 183.115 184.33 186.305 184.33C189.539 184.33 191.959 182.284 191.959 178.28C191.959 174.166 189.451 172.23 186.327 172.23C183.225 172.23 180.673 174.166 180.673 178.28ZM182.873 178.28C182.873 175.42 184.369 173.946 186.327 173.946C188.285 173.946 189.759 175.376 189.759 178.28C189.759 181.118 188.373 182.614 186.349 182.614C184.369 182.614 182.873 181.118 182.873 178.28ZM202.08 168.16V184H207.074C211.716 184 215.016 181.206 215.016 176.08C215.016 170.646 211.892 168.16 207.228 168.16H202.08ZM207.25 169.942C210.638 169.942 212.75 171.922 212.75 176.08C212.75 180.062 210.77 182.152 207.294 182.152H204.324V169.942H207.25ZM228.672 168.16V181.316L221.126 168.16H218.156V184H220.202V170.734L227.836 184H230.674V168.16H228.672ZM248.35 184L241.86 168.16H239.33L232.818 184H235.172L236.756 179.996H244.302L245.864 184H248.35ZM240.562 170.404L243.576 178.17H237.482L240.562 170.404ZM170.479 203.242C170.259 200.338 167.575 197.83 163.769 197.83C159.413 197.83 156.333 200.734 156.333 206.08C156.333 211.36 159.171 214.33 163.593 214.33C167.619 214.33 170.325 211.492 170.501 208.412H168.235C168.103 210.7 166.211 212.438 163.637 212.438C160.667 212.438 158.621 210.172 158.621 206.08C158.621 201.79 160.733 199.7 163.769 199.7C166.211 199.7 167.927 201.086 168.213 203.242H170.479ZM181.198 210.7C180.868 211.756 179.812 212.548 178.426 212.548C176.512 212.548 175.082 211.382 174.906 208.742H183.618C183.618 204.122 181.418 202.23 178.25 202.23C175.082 202.23 172.75 204.298 172.75 208.28C172.75 212.306 175.104 214.33 178.36 214.33C181.11 214.33 182.914 212.79 183.486 210.7H181.198ZM174.994 207.07C175.324 204.958 176.6 203.924 178.294 203.924C180.054 203.924 181.308 204.936 181.462 207.07H174.994ZM188.762 214V206.938C188.762 205.134 190.082 204.034 191.6 204.034C193.162 204.034 194.042 204.848 194.042 206.564V214H196.154V206.542C196.154 203.748 194.592 202.23 192.106 202.23C190.742 202.23 189.466 202.846 188.63 204.012L188.388 202.56H186.65V214H188.762ZM204.737 212.306C204.099 212.46 203.813 212.482 203.439 212.482C202.647 212.482 202.229 212.064 202.229 211.206V204.364H204.693V202.56H202.229V199.81H200.249L200.117 202.56H198.423V204.364H200.117V211.162C200.117 213.054 201.151 214.33 203.175 214.33C203.703 214.33 204.165 214.264 204.737 214.11V212.306ZM214.903 210.7C214.573 211.756 213.517 212.548 212.131 212.548C210.217 212.548 208.787 211.382 208.611 208.742H217.323C217.323 204.122 215.123 202.23 211.955 202.23C208.787 202.23 206.455 204.298 206.455 208.28C206.455 212.306 208.809 214.33 212.065 214.33C214.815 214.33 216.619 212.79 217.191 210.7H214.903ZM208.699 207.07C209.029 204.958 210.305 203.924 211.999 203.924C213.759 203.924 215.013 204.936 215.167 207.07H208.699ZM222.467 214V208.258C222.467 205.376 223.743 204.298 225.195 204.298C225.701 204.298 226.119 204.386 226.537 204.496V202.384C226.273 202.318 225.833 202.23 225.283 202.23C224.007 202.23 223.017 202.934 222.379 204.254L222.093 202.56H220.355V214H222.467Z" fill="black"/>
</g>
<circle cx="30" cy="242" r="30" fill="#0076D5"/>
<path fill-rule="evenodd" clip-rule="evenodd" d="M18.7222 243.889C18.937 243.889 19.1111 244.063 19.1111 244.278C19.1111 244.493 18.937 244.667 18.7222 244.667H17.5356C17.1061 244.667 16.7578 245.015 16.7578 245.444V252.444C16.7578 252.874 17.1061 253.222 17.5356 253.222H42.4644C42.8939 253.222 43.2422 252.874 43.2422 252.444V245.444C43.2422 245.015 42.8939 244.667 42.4644 244.667H41.2778C41.063 244.667 40.8889 244.493 40.8889 244.278C40.8889 244.063 41.063 243.889 41.2778 243.889H43.2222C43.6518 243.889 44 244.237 44 244.667V253.222C44 253.652 43.6518 254 43.2222 254H16.7778C16.3482 254 16 253.652 16 253.222V244.667C16 244.237 16.3482 243.889 16.7778 243.889H18.7222ZM35.6257 243.889C38.9561 243.889 41.6667 241.146 41.6667 237.773C41.6667 234.401 38.9561 231.656 35.6257 231.656C35.3838 231.656 35.1279 231.676 34.8207 231.717C34.7188 231.733 34.6146 231.703 34.5321 231.641C34.4497 231.578 34.396 231.485 34.382 231.382C34.0406 228.757 31.8114 226.778 29.1958 226.778C26.3087 226.778 23.959 229.157 23.959 232.081C23.959 232.309 23.9777 232.551 24.0197 232.843C24.036 232.956 24.001 233.072 23.924 233.157C23.847 233.243 23.735 233.296 23.6207 233.286H23.6152C20.6783 233.286 18.3333 235.664 18.3333 238.586C18.3333 241.51 20.6822 243.889 23.5701 243.889H35.6257ZM35.6257 230.878C39.3854 230.878 42.4444 233.971 42.4444 237.773C42.4444 241.574 39.3854 244.667 35.6257 244.667H23.5701C20.2529 244.667 17.5556 241.939 17.5556 238.586C17.5556 235.358 20.0546 232.71 23.1991 232.516C23.1874 232.365 23.1812 232.221 23.1812 232.081C23.1812 228.728 25.8793 226 29.1958 226C32.0736 226 34.5438 228.083 35.0921 230.904C35.2819 230.887 35.4553 230.878 35.6257 230.878ZM25.6989 246.339H26.4767L24.47 251.939H23.4822L21.4444 246.339H22.2844L23.98 251.192L25.6989 246.339ZM28.005 246.339H29.825C31.2328 246.339 32.0183 246.977 32.0183 248.159C32.0183 249.294 31.2639 249.94 29.7939 249.94H28.7983V251.939H28.005V246.339ZM29.8406 246.984H28.7983V249.294H29.8094C30.7972 249.294 31.1939 248.89 31.1939 248.159C31.1939 247.42 30.7194 246.984 29.8406 246.984ZM36.1289 251.387C37.0389 251.387 37.7078 250.772 37.7544 249.963H38.5556C38.4933 251.052 37.5367 252.056 36.1133 252.056C34.55 252.056 33.5467 251.006 33.5467 249.139C33.5467 247.249 34.6356 246.222 36.1756 246.222C37.5211 246.222 38.47 247.109 38.5478 248.136H37.7467C37.6456 247.373 37.0389 246.883 36.1756 246.883C35.1022 246.883 34.3556 247.622 34.3556 249.139C34.3556 250.586 35.0789 251.387 36.1289 251.387Z" fill="white"/>
<circle cx="37" cy="108" r="30" fill="#E9EBEC"/>
<path fill-rule="evenodd" clip-rule="evenodd" d="M24.5312 113.938H46.4688C47.8667 113.938 49 115.071 49 116.469C49 117.867 47.8667 119 46.4688 119H24.5312C23.1333 119 22 117.867 22 116.469C22 115.071 23.1333 113.938 24.5312 113.938ZM27.0625 115.625V117.312H28.75V115.625H27.0625ZM32.125 115.625V117.312H33.8125V115.625H32.125ZM37.1875 115.625V117.312H38.875V115.625H37.1875ZM42.25 115.625V117.312H43.9375V115.625H42.25ZM42.2496 94.876V110.562C42.2496 111.028 41.8718 111.406 41.4058 111.406C40.9398 111.406 40.5621 111.028 40.5621 110.562V94.8809L36.9404 98.5028C36.6109 98.8324 36.0767 98.8324 35.7472 98.5029C35.4176 98.1734 35.4176 97.6392 35.7471 97.3097L40.8092 92.2472C41.1383 91.918 41.6718 91.9176 42.0015 92.2461L47.0807 97.3086C47.4108 97.6376 47.4116 98.1718 47.0827 98.5019C46.7537 98.8319 46.2195 98.8328 45.8894 98.5039L42.2496 94.876ZM28.7668 109.374V92.8438C28.7668 92.3778 29.1445 92 29.6105 92C30.0765 92 30.4543 92.3778 30.4543 92.8438V109.369L34.0759 105.747C34.4054 105.418 34.9397 105.418 35.2692 105.747C35.5987 106.077 35.5987 106.611 35.2692 106.94L30.2072 112.003C29.878 112.332 29.3445 112.332 29.0149 112.004L23.9356 106.941C23.6056 106.612 23.6047 106.078 23.9336 105.748C24.2626 105.418 24.7968 105.417 25.1269 105.746L28.7668 109.374Z" fill="#545454"/>
<circle cx="180" cy="30" r="30" fill="#E9EBEC"/>
<path fill-rule="evenodd" clip-rule="evenodd" d="M191.199 25.779C188.648 26.567 184.781 27.0002 179.977 27.0002C178.93 27.0002 177.932 26.9823 176.983 26.9471C169.033 26.775 165.334 25.7854 165.334 23.6668V23.1929C165.334 23.183 165.334 23.173 165.334 23.1631V20.0698C165.334 19.4776 165.675 18.9649 166.265 18.5246C166.358 18.4551 166.464 18.413 166.574 18.3983C168.643 17.0795 173.222 16.3335 179.693 16.3335C188.851 16.3335 194.667 17.8003 194.667 20.2102V23.0978C194.667 24.2093 193.43 25.1201 191.199 25.779ZM191.484 19.0067C189.216 18.2707 185.01 17.6668 179.693 17.6668C175.545 17.6668 173.129 18.0025 170.414 18.5918C169.582 18.7722 168.879 18.9738 168.313 19.1768C170.328 19.9348 173.898 20.3335 179.693 20.3335C185.906 20.3335 189.561 19.8751 191.484 19.0067ZM193.228 23.3798C193.28 23.2393 193.288 23.1101 193.288 23.0002V21.0002C193.288 20.5936 193.076 20.2406 192.675 19.8786C190.468 21.1077 186.779 21.6668 179.693 21.6668C172.727 21.6668 169.054 21.1265 166.824 19.9407C166.719 20.0403 166.665 20.1314 166.665 20.2102V23.1974C166.672 23.6259 166.84 24.308 169.34 24.8059C171.361 25.2082 173.93 25.4821 176.755 25.6005C177.674 25.6271 178.653 25.6412 179.693 25.6412C187.15 25.6412 192.419 24.4538 193.228 23.3798ZM192.325 27.8574C192.561 27.6819 192.883 27.6819 193.119 27.8573C194.058 28.5564 194.619 29.2703 194.619 30.3335V32.3335C194.619 34.8316 188.922 36.3335 179.977 36.3335C170.836 36.3335 165.334 34.973 165.334 32.4964V29.4031C165.334 28.811 165.675 28.2982 166.265 27.8579C166.5 27.6819 166.824 27.6817 167.059 27.8574C168.645 29.0377 172.413 29.6668 179.693 29.6668C186.972 29.6668 190.74 29.0377 192.325 27.8574ZM179.693 31.0002C172.639 31.0002 168.962 30.4461 166.74 29.2288C166.688 29.2996 166.665 29.3583 166.665 29.4031V32.4964C166.665 32.9222 166.772 33.6279 169.34 34.1393C172.107 34.6902 175.903 35.0002 179.977 35.0002C184.002 35.0002 187.805 34.6577 190.603 34.0597C193.166 33.512 193.288 32.7708 193.288 32.3335V30.3335C193.288 29.9269 193.076 29.5739 192.675 29.2119C190.468 30.441 186.779 31.0002 179.693 31.0002ZM192.229 36.9325C192.372 36.8262 192.551 36.7812 192.726 36.8077C193.603 36.9398 194.181 37.3775 194.45 38.0216C194.588 38.3519 194.619 38.6197 194.619 39.0002V41.571C194.619 44.0785 188.764 45.6668 179.927 45.6668C171.112 45.6668 165.334 44.0815 165.334 41.571V38.4776C165.334 37.8861 165.674 37.3734 166.262 36.9331C166.498 36.7562 166.822 36.756 167.058 36.9325C168.733 38.1833 172.86 39.0002 179.644 39.0002C186.428 39.0002 190.555 38.1834 192.229 36.9325ZM192.768 38.1773C190.578 39.5554 186.438 40.3335 179.644 40.3335C173.065 40.3335 169.057 39.6038 166.737 38.3062C166.687 38.3756 166.665 38.4333 166.665 38.4776V41.571C166.665 42.0157 166.789 42.7774 169.341 43.3463C172.147 43.9721 175.94 44.3335 179.927 44.3335C183.917 44.3335 187.734 43.9716 190.564 43.3461C193.141 42.7763 193.288 42.0122 193.288 41.571V39.0002C193.288 38.7843 193.273 38.6594 193.222 38.5356C193.154 38.3731 193.026 38.2524 192.768 38.1773Z" fill="#545454"/>
<circle cx="332" cy="108" r="30" fill="#E9EBEC"/>
<path fill-rule="evenodd" clip-rule="evenodd" d="M320 107.381V107.333C320 104.756 322.089 102.667 324.667 102.667H328C328.736 102.667 329.333 103.264 329.333 104V105.333H331.333C331.702 105.333 332 105.632 332 106C332 106.368 331.702 106.667 331.333 106.667H329.333V109.333H331.333C331.702 109.333 332 109.632 332 110C332 110.368 331.702 110.667 331.333 110.667H329.333V112C329.333 112.737 328.736 113.333 328 113.333H324.667C322.112 113.333 320.036 111.28 320 108.733C318.479 109.042 317.333 110.387 317.333 112V113C317.333 115.393 319.273 117.333 321.667 117.333H347.333C347.702 117.333 348 117.632 348 118C348 118.368 347.702 118.667 347.333 118.667H321.667C318.537 118.667 316 116.13 316 113V112C316 109.649 317.738 107.704 320 107.381ZM344 108.62V108.667C344 111.244 341.911 113.333 339.333 113.333H336C335.264 113.333 334.667 112.737 334.667 112V104C334.667 103.264 335.264 102.667 336 102.667H339.333C341.888 102.667 343.964 104.72 344 107.267C345.521 106.958 346.667 105.613 346.667 104V103C346.667 100.607 344.727 98.6668 342.333 98.6668H316.667C316.298 98.6668 316 98.3684 316 98.0002C316 97.632 316.298 97.3335 316.667 97.3335H342.333C345.463 97.3335 348 99.8705 348 103V104C348 106.351 346.262 108.296 344 108.62Z" fill="#545454"/>
<circle cx="348" cy="242" r="30" fill="#E9EBEC"/>
<path fill-rule="evenodd" clip-rule="evenodd" d="M362.938 244.457L362.949 254.77C362.949 257.048 361.102 258.895 358.824 258.895L338.199 258.938C335.921 258.938 334.074 257.091 334.074 254.813V234.188C334.074 231.909 335.921 230.063 338.199 230.063H340.251H341.282C341.851 230.063 342.313 230.524 342.313 231.094C342.313 231.663 341.851 232.125 341.282 232.125H340.251H338.199C337.06 232.125 336.137 233.048 336.137 234.188V254.813C336.137 255.952 337.06 256.875 338.199 256.875L358.824 256.832C359.963 256.832 360.887 255.909 360.887 254.77L360.877 245.582C360.876 245.565 360.876 245.548 360.876 245.531V243.469C360.876 242.899 361.337 242.438 361.907 242.438C362.476 242.438 362.938 242.899 362.938 243.469V244.457ZM341.282 245.539C341.282 244.969 341.744 244.508 342.313 244.508C342.883 244.508 343.344 244.969 343.344 245.539V253.789C343.344 254.359 342.883 254.82 342.313 254.82C341.744 254.82 341.282 254.359 341.282 253.789V245.539ZM347.469 241.414C347.469 240.845 347.931 240.383 348.501 240.383C349.07 240.383 349.532 240.845 349.532 241.414V253.789C349.532 254.359 349.07 254.82 348.501 254.82C347.931 254.82 347.469 254.359 347.469 253.789V241.414ZM353.657 247.602C353.657 247.032 354.119 246.57 354.688 246.57C355.258 246.57 355.719 247.032 355.719 247.602V253.789C355.719 254.359 355.258 254.82 354.688 254.82C354.119 254.82 353.657 254.359 353.657 253.789V247.602ZM356.861 241.878L351.579 231.392L349.425 235.741C349.251 236.092 348.893 236.315 348.501 236.315H345.407C344.837 236.315 344.376 235.853 344.376 235.283C344.376 234.714 344.837 234.252 345.407 234.252H347.861L350.647 228.626C351.024 227.864 352.11 227.861 352.492 228.62L357.786 239.13L360.002 234.769C360.178 234.423 360.533 234.205 360.921 234.205H363.943C364.513 234.205 364.974 234.667 364.974 235.237C364.974 235.806 364.513 236.268 363.943 236.268H361.554L358.701 241.881C358.318 242.635 357.241 242.633 356.861 241.878Z" fill="#545454"/>
<circle cx="184" cy="349" r="30" fill="#E9EBEC"/>
<path fill-rule="evenodd" clip-rule="evenodd" d="M191.75 344.875C193.752 344.875 195.375 346.498 195.375 348.5V359.375C195.375 361.377 193.752 363 191.75 363H177.25C175.248 363 173.625 361.377 173.625 359.375V348.5C173.625 346.498 175.248 344.875 177.25 344.875V341.25C177.25 337.262 180.512 334 184.5 334C188.488 334 191.75 337.262 191.75 341.25V344.875ZM189.938 344.875V341.25C189.938 338.252 187.498 335.812 184.5 335.812C181.502 335.812 179.062 338.252 179.062 341.25V344.875H189.938ZM177.25 346.688C176.249 346.688 175.438 347.499 175.438 348.5V359.375C175.438 360.376 176.249 361.188 177.25 361.188H191.75C192.751 361.188 193.562 360.376 193.562 359.375V348.5C193.562 347.499 192.751 346.688 191.75 346.688H177.25Z" fill="#545454"/>
</svg>
