<svg width="1365" height="93" viewBox="0 0 1365 93" fill="none" xmlns="http://www.w3.org/2000/svg">
<path d="M109.484 40.7163V24.1767C109.484 22.7359 110.757 21.5674 112.328 21.5674" stroke="#8D959C" stroke-linecap="round"/>
<path d="M122.281 47.8086H153.885C156.063 47.8086 157.828 49.5594 157.828 51.7194V56.3192" stroke="#8D959C" stroke-linecap="round"/>
<path d="M154.984 77.5957V59.6459C154.984 58.9313 155.215 58.2689 155.609 57.7282C156.223 56.8767 157.241 56.3191 158.39 56.3191H168.79H181.289" stroke="#8D959C" stroke-linecap="round"/>
<path d="M181.289 76.1774V41.6434C181.289 38.6477 182.523 35.931 184.515 33.9687C186.552 31.9584 189.39 30.7326 192.513 30.7892C198.564 30.8988 203.328 35.939 203.328 41.8903V56.9125" stroke="#8D959C" stroke-linecap="round"/>
<path d="M121.57 21.5673V13.0566H114.582C112.945 13.0566 111.617 14.4078 111.617 16.0743V21.5673" stroke="#8D959C" stroke-linecap="round"/>
<path d="M71.8047 64.8297V56.8637C71.8047 54.2128 74.022 52.0637 76.757 52.0637H79.625" stroke="#8D959C" stroke-linecap="round"/>
<path d="M84.6016 64.8298V52.0482V42.844H79.625V51.8456" stroke="#8D959C" stroke-linecap="round"/>
<path d="M184.133 42.1347V42.1347C184.133 37.4346 187.952 33.624 192.664 33.624C197.376 33.624 201.195 37.4346 201.195 42.1347" stroke="#8D959C" stroke-linecap="round"/>
<path d="M186.266 42.1347V42.1347C186.266 38.6092 188.971 35.7517 192.309 35.7517C195.646 35.7517 198.352 38.6092 198.352 42.1347" stroke="#8D959C" stroke-linecap="round"/>
<path d="M113.039 51.3546V24.8628C113.039 24.2182 113.503 23.6951 114.075 23.6951H114.136C114.708 23.6951 115.172 24.2182 115.172 24.8628V39.1283V44.54" stroke="#8D959C" stroke-linecap="round"/>
<path d="M117.305 38.5887V24.9002C117.305 24.235 117.768 23.6951 118.34 23.6951H118.402C118.974 23.6951 119.438 24.235 119.438 24.9002V34.0379" stroke="#8D959C" stroke-linecap="round"/>
<path d="M158.539 74.0496V67.4764C158.539 63.2726 162.04 59.8652 166.359 59.8652V70.0438" stroke="#8D959C" stroke-linecap="round"/>
<path fill-rule="evenodd" clip-rule="evenodd" d="M177.441 62.7021H170.917C170.363 62.7021 169.914 62.2315 169.914 61.6506V61.626C169.914 61.0451 170.363 60.5745 170.917 60.5745H177.441C177.996 60.5745 178.445 61.0451 178.445 61.626V61.6506C178.445 62.2315 177.996 62.7021 177.441 62.7021Z" stroke="#8D959C" stroke-linecap="round"/>
<path fill-rule="evenodd" clip-rule="evenodd" d="M177.441 66.2483H170.917C170.363 66.2483 169.914 65.7776 169.914 65.1968V65.1721C169.914 64.5912 170.363 64.1206 170.917 64.1206H177.441C177.996 64.1206 178.445 64.5912 178.445 65.1721V65.1968C178.445 65.7776 177.996 66.2483 177.441 66.2483Z" stroke="#8D959C" stroke-linecap="round"/>
<path fill-rule="evenodd" clip-rule="evenodd" d="M177.441 69.7944H170.917C170.363 69.7944 169.914 69.3238 169.914 68.7429V68.7182C169.914 68.1374 170.363 67.6667 170.917 67.6667H177.441C177.996 67.6667 178.445 68.1374 178.445 68.7182V68.7429C178.445 69.3238 177.996 69.7944 177.441 69.7944Z" stroke="#8D959C" stroke-linecap="round"/>
<path fill-rule="evenodd" clip-rule="evenodd" d="M177.441 73.3405H170.917C170.363 73.3405 169.914 72.8699 169.914 72.2891V72.2644C169.914 71.6835 170.363 71.2129 170.917 71.2129H177.441C177.996 71.2129 178.445 71.6835 178.445 72.2644V72.2891C178.445 72.8699 177.996 73.3405 177.441 73.3405Z" stroke="#8D959C" stroke-linecap="round"/>
<path d="M251.672 88.5887H248.828" stroke="#8D959C" stroke-linecap="round"/>
<path d="M211.421 87.5248C206.678 85.6902 203.328 81.1813 203.328 75.9126V60.2461V57.0283H233.898" stroke="#8D959C" stroke-linecap="round"/>
<path d="M214.703 88.5249C215.183 88.61 215.671 88.6526 216.164 88.6526H218.258" stroke="#8D959C" stroke-linecap="round"/>
<path d="M223.945 88.5887H233.386H236.742" stroke="#8D959C" stroke-linecap="round"/>
<path d="M233.898 60.5744H203.328V57.0283" stroke="#8D959C" stroke-linecap="round"/>
<path fill-rule="evenodd" clip-rule="evenodd" d="M185.199 81.8511V81.8511C184.61 81.8511 184.133 81.4025 184.133 80.849V45.9738C184.133 45.4202 184.61 44.9717 185.199 44.9717C185.788 44.9717 186.266 45.4202 186.266 45.9738V80.849C186.266 81.4025 185.788 81.8511 185.199 81.8511Z" stroke="#8D959C" stroke-linecap="round"/>
<path fill-rule="evenodd" clip-rule="evenodd" d="M190.176 81.8511V81.8511C189.587 81.8511 189.109 81.4025 189.109 80.849V45.9738C189.109 45.4202 189.587 44.9717 190.176 44.9717C190.765 44.9717 191.242 45.4202 191.242 45.9738V80.849C191.242 81.4025 190.765 81.8511 190.176 81.8511Z" stroke="#8D959C" stroke-linecap="round"/>
<path fill-rule="evenodd" clip-rule="evenodd" d="M195.152 81.8511V81.8511C194.563 81.8511 194.086 81.4025 194.086 80.849V45.9738C194.086 45.4202 194.563 44.9717 195.152 44.9717C195.741 44.9717 196.219 45.4202 196.219 45.9738V80.849C196.219 81.4025 195.741 81.8511 195.152 81.8511Z" stroke="#8D959C" stroke-linecap="round"/>
<path fill-rule="evenodd" clip-rule="evenodd" d="M200.129 81.8511V81.8511C199.54 81.8511 199.062 81.4025 199.062 80.849V45.9738C199.062 45.4202 199.54 44.9717 200.129 44.9717C200.718 44.9717 201.195 45.4202 201.195 45.9738V80.849C201.195 81.4025 200.718 81.8511 200.129 81.8511Z" stroke="#8D959C" stroke-linecap="round"/>
<path d="M192.309 35.7517V34.3333" stroke="#8D959C" stroke-linecap="round"/>
<path d="M196.93 37.1702L197.641 36.4609" stroke="#8D959C" stroke-linecap="round"/>
<path d="M187.688 37.1702L186.977 36.4609" stroke="#8D959C" stroke-linecap="round"/>
<path fill-rule="evenodd" clip-rule="evenodd" d="M136.5 80.4325H130.102V59.4366C130.102 56.1483 132.928 53.4822 136.416 53.4822H136.5V80.4325Z" stroke="#8D959C" stroke-linecap="round"/>
<path fill-rule="evenodd" clip-rule="evenodd" d="M144.32 80.4325H137.922V53.4822H138.006C141.493 53.4822 144.32 56.1483 144.32 59.4366V80.4325Z" stroke="#8D959C" stroke-linecap="round"/>
<path fill-rule="evenodd" clip-rule="evenodd" d="M205.683 22.3659C205.954 19.7908 208.056 17.812 210.584 17.812C212.289 17.812 213.796 18.7108 214.684 20.086L214.819 20.2958L215.068 20.3136C216.148 20.3911 217.102 20.9423 217.739 21.7772L217.944 22.0464L218.27 21.9559C218.521 21.8864 218.778 21.8475 219.042 21.8475C219.443 21.8475 219.822 21.9286 220.169 22.0771C220.327 22.1449 220.5 22.1248 220.635 22.0387C220.848 22.1559 221.042 22.2953 221.215 22.4529C221.162 22.6109 221.19 22.7915 221.304 22.9292C221.686 23.3913 221.94 23.9721 222.006 24.6134H202.71C203.284 23.684 204.209 23.0155 205.283 22.8042L205.645 22.7329L205.683 22.3659ZM222.419 22.7766C222.832 23.4556 223.057 24.2671 223.019 25.1324L223.011 25.3221L222.879 25.4585L222.878 25.4598L222.877 25.4611L222.729 25.6134H222.517H201.906H201.177L201.44 24.9331C202.008 23.4647 203.225 22.3256 204.736 21.9066C205.206 19.026 207.632 16.812 210.584 16.812C212.566 16.812 214.313 17.8146 215.387 19.3406C216.554 19.4872 217.584 20.0679 218.326 20.9164C218.557 20.8722 218.795 20.8475 219.042 20.8475C219.399 20.8475 219.745 20.8956 220.075 20.9868C220.514 20.5636 221.071 20.2482 221.691 20.0802C222.1 18.1872 223.908 16.812 226.014 16.812C227.441 16.812 228.721 17.4402 229.53 18.4266C230.347 18.5275 231.079 18.8855 231.624 19.4162C231.78 19.3926 231.939 19.38 232.102 19.38C233.76 19.38 235.186 20.6549 235.106 22.2973L235.094 22.5452L234.918 22.6658L234.797 22.7766H234.603H222.419ZM222.625 20.5539C222.805 19.0457 224.219 17.812 226.014 17.812C227.217 17.812 228.261 18.3732 228.863 19.199L229.002 19.3885L229.236 19.4032C229.993 19.4505 230.645 19.7913 231.072 20.2866L231.272 20.5197L231.571 20.4456C231.742 20.4031 231.919 20.38 232.102 20.38C233.091 20.38 233.86 21.0009 234.059 21.7766H221.955C221.767 21.5962 221.56 21.434 221.336 21.2923C221.601 21.1478 221.897 21.0426 222.214 20.9873L222.581 20.9233L222.625 20.5539Z" fill="#8D959C"/>
<path fill-rule="evenodd" clip-rule="evenodd" d="M335.1 28.7485C335.373 26.1761 337.492 24.1951 340.045 24.1951C341.768 24.1951 343.288 25.0967 344.182 26.4702L344.318 26.6784L344.566 26.6961C345.651 26.7738 346.61 27.3207 347.254 28.1487C347.423 28.3667 347.737 28.406 347.955 28.2365C348.173 28.067 348.213 27.7529 348.043 27.5349C347.283 26.5577 346.164 25.8823 344.883 25.7228C343.801 24.1978 342.041 23.1951 340.045 23.1951C337.075 23.1951 334.629 25.4045 334.153 28.2876C332.631 28.7054 331.404 29.845 330.831 31.3148L330.565 31.9965H331.297H347.411C347.687 31.9965 347.911 31.7726 347.911 31.4965C347.911 31.2203 347.687 30.9965 347.411 30.9965H332.104C332.683 30.0672 333.615 29.3976 334.698 29.1863L335.061 29.1156L335.1 28.7485ZM355.186 23.1951C352.912 23.1951 350.96 24.7337 350.707 26.8161C350.673 27.0902 350.869 27.3395 351.143 27.3728C351.417 27.4062 351.666 27.211 351.7 26.9369C351.882 25.4378 353.331 24.1951 355.186 24.1951C356.429 24.1951 357.504 24.7595 358.123 25.5871L358.262 25.7732L358.494 25.7868C359.276 25.8327 359.949 26.1754 360.387 26.6734L360.588 26.9019L360.883 26.8282C361.056 26.7852 361.237 26.7631 361.429 26.7631C362.459 26.7631 363.246 27.391 363.449 28.1596H351.571C351.295 28.1596 351.071 28.3835 351.071 28.6596C351.071 28.9357 351.295 29.1596 351.571 29.1596H363.993C364.071 29.1596 364.162 29.1415 364.251 29.0888C364.339 29.0364 364.397 28.966 364.433 28.9022C364.467 28.8414 364.482 28.7855 364.489 28.7482C364.492 28.7285 364.494 28.7108 364.496 28.6958L364.497 28.6818C364.583 27.0254 363.109 25.7631 361.429 25.7631C361.261 25.7631 361.096 25.7752 360.933 25.7997C360.372 25.2638 359.62 24.9061 358.781 24.8085C357.952 23.8193 356.642 23.1951 355.186 23.1951Z" fill="#8D959C"/>
<path fill-rule="evenodd" clip-rule="evenodd" d="M60.652 25.9119C60.9223 23.337 63.0246 21.3582 65.5532 21.3582C67.2575 21.3582 68.7645 22.2569 69.6524 23.6322L69.7878 23.8419L70.0367 23.8598C71.1169 23.9372 72.0712 24.4884 72.7076 25.3233L72.9127 25.5925L73.2389 25.5021C73.4896 25.4325 73.7465 25.3937 74.0108 25.3937C74.4116 25.3937 74.7912 25.4747 75.137 25.6231C75.2952 25.691 75.469 25.671 75.6039 25.5848C75.8165 25.702 76.0109 25.8414 76.1834 25.9991C76.1311 26.1571 76.1588 26.3376 76.2726 26.4753C76.6548 26.9375 76.9091 27.5183 76.9751 28.1596H57.6791C58.2528 27.2302 59.1778 26.5617 60.2513 26.3503L60.6135 26.279L60.652 25.9119ZM77.3882 26.3227C77.8009 27.0017 78.0254 27.8133 77.9882 28.6785L77.9775 28.9274L77.7871 29.0586C77.7815 29.0628 77.7757 29.0671 77.7696 29.0713L77.6414 29.1596H77.4858H56.875H56.1458L56.4086 28.4793C56.9761 27.0108 58.1931 25.8718 59.705 25.4527C60.1744 22.5721 62.6009 20.3582 65.5532 20.3582C67.5349 20.3582 69.2819 21.3608 70.3556 22.8867C71.5224 23.0334 72.5525 23.614 73.2949 24.4626C73.5255 24.4183 73.7643 24.3937 74.0108 24.3937C74.3675 24.3937 74.7138 24.4417 75.0436 24.5329C75.4834 24.1098 76.0397 23.7944 76.6604 23.6263C77.0692 21.7333 78.8768 20.3582 80.9831 20.3582C82.4101 20.3582 83.6893 20.9863 84.4984 21.9727C85.3158 22.0736 86.0478 22.4316 86.5932 22.9624C86.7485 22.9387 86.9079 22.9261 87.0711 22.9261C88.729 22.9261 90.1544 24.201 90.0751 25.8434L90.0631 26.0913L89.8872 26.2119L89.766 26.3227H89.5719H77.3882ZM77.5941 24.0999C77.7734 22.5919 79.1878 21.3582 80.9831 21.3582C82.1862 21.3582 83.2294 21.9194 83.8323 22.7451L83.9707 22.9346L84.2049 22.9493C84.9615 22.9967 85.6143 23.3375 86.0403 23.8326L86.2411 24.0659L86.5397 23.9918C86.7112 23.9492 86.8883 23.9261 87.0711 23.9261C88.0598 23.9261 88.8292 24.547 89.0279 25.3227H76.924C76.7358 25.1424 76.5284 24.9802 76.3052 24.8385C76.5701 24.694 76.8662 24.5888 77.1835 24.5334L77.5501 24.4695L77.5941 24.0999Z" fill="#8D959C"/>
<path fill-rule="evenodd" clip-rule="evenodd" d="M115.883 80.9878V88.9433H61.8516V81.0567C62.0194 80.8456 62.2118 80.6353 62.4205 80.4326H115.371C115.555 80.6105 115.727 80.7974 115.883 80.9878Z" stroke="#8D959C" stroke-linecap="round"/>
<path d="M62.5625 80.4326C62.3017 80.6629 62.0613 80.9024 61.8516 81.1418" stroke="#8D959C" stroke-linecap="round"/>
<path d="M115.883 81.1418C115.667 80.8985 115.428 80.6599 115.172 80.4326" stroke="#8D959C" stroke-linecap="round"/>
<path fill-rule="evenodd" clip-rule="evenodd" d="M115.172 80.4325H62.5625C63.7785 79.1542 65.5923 77.9991 67.8739 77.0011C73.0144 74.7545 80.5138 73.3403 88.8672 73.3403C92.2346 73.3403 95.4637 73.5697 98.4569 73.9901C106.176 75.0777 112.317 77.447 115.172 80.4325Z" stroke="#8D959C" stroke-linecap="round"/>
<path d="M115.172 80.4326C115.433 80.6487 115.655 80.8688 115.845 81.0952C115.859 81.1085 115.873 81.1252 115.883 81.1418" stroke="#8D959C" stroke-linecap="round"/>
<path d="M61.1406 81.8511C61.1512 81.8364 61.1617 81.8218 61.1775 81.8072C61.3671 81.5805 61.5935 81.3608 61.8516 81.1418" stroke="#8D959C" stroke-linecap="round"/>
<path d="M168.848 56.3193V30.7874" stroke="#8D959C" stroke-linecap="round"/>
<path fill-rule="evenodd" clip-rule="evenodd" d="M152.852 30.7873L159.709 22.9858H163.657L170.625 30.7873H152.852Z" stroke="#8D959C" stroke-linecap="round"/>
<path fill-rule="evenodd" clip-rule="evenodd" d="M74.6484 59.156H76.0703V55.6099H74.6484V59.156Z" stroke="#8D959C" stroke-linecap="round"/>
<path fill-rule="evenodd" clip-rule="evenodd" d="M74.6484 64.1206H76.0703V60.5745H74.6484V64.1206Z" stroke="#8D959C" stroke-linecap="round"/>
<path fill-rule="evenodd" clip-rule="evenodd" d="M77.4922 64.1206H78.9141V60.5745H77.4922V64.1206Z" stroke="#8D959C" stroke-linecap="round"/>
<path fill-rule="evenodd" clip-rule="evenodd" d="M99.5312 47.0993H100.953V43.5532H99.5312V47.0993Z" stroke="#8D959C" stroke-linecap="round"/>
<path fill-rule="evenodd" clip-rule="evenodd" d="M103.086 47.0993H104.508V43.5532H103.086V47.0993Z" stroke="#8D959C" stroke-linecap="round"/>
<path fill-rule="evenodd" clip-rule="evenodd" d="M99.5312 52.7731H100.953V49.2271H99.5312V52.7731Z" stroke="#8D959C" stroke-linecap="round"/>
<path fill-rule="evenodd" clip-rule="evenodd" d="M103.086 52.7731H104.508V49.2271H103.086V52.7731Z" stroke="#8D959C" stroke-linecap="round"/>
<path fill-rule="evenodd" clip-rule="evenodd" d="M99.5312 58.4467H100.953V54.9006H99.5312V58.4467Z" stroke="#8D959C" stroke-linecap="round"/>
<path fill-rule="evenodd" clip-rule="evenodd" d="M103.086 58.4467H104.508V54.9006H103.086V58.4467Z" stroke="#8D959C" stroke-linecap="round"/>
<path d="M307.125 76.8865H303.57V76.9793V88.234" stroke="#8D959C" stroke-linecap="round"/>
<path d="M332.719 86.1063V54.9006H345.516" stroke="#8D959C" stroke-linecap="round"/>
<path d="M307.125 79.0142V71.0483C307.125 68.3974 309.342 66.2483 312.077 66.2483H314.945" stroke="#8D959C" stroke-linecap="round"/>
<path d="M319.922 81.851V66.1564V59.5153C319.922 58.1418 318.84 57.0283 317.506 57.0283H317.362C316.027 57.0283 314.945 58.1418 314.945 59.5153V66.0906" stroke="#8D959C" stroke-linecap="round"/>
<path fill-rule="evenodd" clip-rule="evenodd" d="M309.969 73.3405H311.391V69.7944H309.969V73.3405Z" stroke="#8D959C" stroke-linecap="round"/>
<path fill-rule="evenodd" clip-rule="evenodd" d="M309.969 78.3049H311.391V74.7588H309.969V78.3049Z" stroke="#8D959C" stroke-linecap="round"/>
<path fill-rule="evenodd" clip-rule="evenodd" d="M313.523 78.3049H314.945V74.7588H313.523V78.3049Z" stroke="#8D959C" stroke-linecap="round"/>
<path fill-rule="evenodd" clip-rule="evenodd" d="M335.562 61.2836H336.984V57.7375H335.562V61.2836Z" stroke="#8D959C" stroke-linecap="round"/>
<path fill-rule="evenodd" clip-rule="evenodd" d="M338.406 61.2836H339.828V57.7375H338.406V61.2836Z" stroke="#8D959C" stroke-linecap="round"/>
<path fill-rule="evenodd" clip-rule="evenodd" d="M335.562 66.9575H336.984V63.4114H335.562V66.9575Z" stroke="#8D959C" stroke-linecap="round"/>
<path fill-rule="evenodd" clip-rule="evenodd" d="M338.406 66.9575H339.828V63.4114H338.406V66.9575Z" stroke="#8D959C" stroke-linecap="round"/>
<path fill-rule="evenodd" clip-rule="evenodd" d="M335.562 72.6313H336.984V69.0852H335.562V72.6313Z" stroke="#8D959C" stroke-linecap="round"/>
<path fill-rule="evenodd" clip-rule="evenodd" d="M338.406 72.6313H339.828V69.0852H338.406V72.6313Z" stroke="#8D959C" stroke-linecap="round"/>
<path fill-rule="evenodd" clip-rule="evenodd" d="M252.027 54.5461V88.5887H248.473V62.7021L237.809 55.9645V88.5887H233.898V41.4255L252.027 54.5461Z" stroke="#8D959C" stroke-linecap="round"/>
<path d="M292.195 79.3688H264.469" stroke="#8D959C" stroke-linecap="round"/>
<path d="M303.57 79.3688H299.305" stroke="#8D959C" stroke-linecap="round"/>
<path d="M303.57 88.5887H299.305" stroke="#8D959C" stroke-linecap="round"/>
<path d="M257.359 92.4894H252.383V83.2695H257.359" stroke="#8D959C" stroke-linecap="round"/>
<path d="M292.195 88.5887H264.469" stroke="#8D959C" stroke-linecap="round"/>
<path d="M108.062 65.1844H122.992" stroke="#8D959C" stroke-linecap="round"/>
<path d="M108.062 66.6029H122.992" stroke="#8D959C" stroke-linecap="round"/>
<path d="M108.062 68.0214H122.992" stroke="#8D959C" stroke-linecap="round"/>
<path d="M364 88.9174L354.854 60.1062C353.874 56.8291 353.265 53.455 353.037 50.0486L351.766 31.1334L351.484 26.9067L350.41 10.9292H348.997L347.878 27.6219L347.641 31.1334L346.37 50.0486C346.142 53.455 345.533 56.8291 344.553 60.1062L334.852 92.4895" stroke="#8D959C" stroke-linecap="round"/>
<path fill-rule="evenodd" clip-rule="evenodd" d="M349.781 6.67375H349.07L349.426 0.290771L349.781 6.67375Z" stroke="#8D959C" stroke-linecap="round"/>
<path fill-rule="evenodd" clip-rule="evenodd" d="M354.758 8.80149C354.758 9.3895 354.513 9.92334 354.122 10.3067C353.731 10.6893 353.186 10.9291 352.586 10.9291H346.266C345.065 10.9291 344.094 9.9775 344.094 8.80149C344.094 8.21348 344.339 7.67963 344.73 7.29627C345.121 6.91367 345.666 6.67383 346.266 6.67383H352.586C353.786 6.67383 354.758 7.62547 354.758 8.80149Z" stroke="#8D959C" stroke-linecap="round"/>
<path d="M346.938 8.4469H353.336" stroke="#8D959C" stroke-linecap="round"/>
<path fill-rule="evenodd" clip-rule="evenodd" d="M257.359 92.4893H264.469V77.5957H257.359V92.4893Z" stroke="#8D959C" stroke-linecap="round"/>
<path fill-rule="evenodd" clip-rule="evenodd" d="M292.195 92.4893H299.305V77.5957H292.195V92.4893Z" stroke="#8D959C" stroke-linecap="round"/>
<path d="M257.359 77.5957L263.758 85.2438L257.359 92.4893" stroke="#8D959C" stroke-linecap="round"/>
<path d="M292.195 77.5957L298.594 85.2438L292.195 92.4893" stroke="#8D959C" stroke-linecap="round"/>
<path d="M264.469 77.5957L258.07 85.2438L264.469 92.4893" stroke="#8D959C" stroke-linecap="round"/>
<path d="M299.305 77.5957L292.906 85.2438L299.305 92.4893" stroke="#8D959C" stroke-linecap="round"/>
<path d="M292.195 85.7518H264.469" stroke="#8D959C" stroke-linecap="round"/>
<path d="M252.383 88.2341V86.1064H257.359" stroke="#8D959C" stroke-linecap="round"/>
<path d="M303.57 88.2341V86.1064H299.305" stroke="#8D959C" stroke-linecap="round"/>
<path d="M26.3047 64.8298C26.4935 64.8415 26.6864 64.861 26.8752 64.8805C30.0933 65.2348 32.7449 67.011 35.6797 68.2022C39.8172 69.8845 44.1024 71.2163 48.6503 71.2128C55.345 71.2085 61.4691 68.284 68.25 69.1329" stroke="#8D959C" stroke-linecap="round"/>
<path d="M0.710938 86.8157C2.69179 82.8659 4.68898 78.8921 7.32739 75.3313C9.96988 71.7705 13.3108 68.6111 17.395 66.7865C18.6489 66.2288 19.9722 65.8041 21.3281 65.5391" stroke="#8D959C" stroke-linecap="round"/>
<path d="M455 84.688C446.132 71.7352 430.985 64.7269 415.479 68.8451C410.268 70.2289 405.163 71.9994 400.218 74.1335C395.39 76.2179 390.851 79.2864 385.609 80.2555C375.303 82.1611 364.29 76.3344 357.602 68.9126" stroke="#8D959C" stroke-linecap="round"/>
<path d="M223.221 88.2341C224.51 88.9901 225.367 90.3344 225.367 91.8676C225.367 93.9056 223.848 95.6096 221.812 96.0356" stroke="#8D959C" stroke-linecap="round"/>
<path d="M218.862 88.2341C217.645 88.9627 216.836 90.2572 216.836 91.7332C216.836 93.7628 218.366 95.4505 220.378 95.7899L220.391 95.9686V100.291" stroke="#8D959C" stroke-linecap="round"/>
<path d="M218.74 88.2341C218.009 87.6122 217.547 86.6996 217.547 85.6843C217.547 84.2825 218.426 83.0781 219.68 82.5603" stroke="#8D959C" stroke-linecap="round"/>
<path d="M221.812 82.5603C223.066 83.0781 223.945 84.2821 223.945 85.6839C223.945 86.6992 223.483 87.6122 222.753 88.2341" stroke="#8D959C" stroke-linecap="round"/>
<path d="M221.73 82.5603C222.214 82.1952 222.523 81.636 222.523 81.0087C222.523 79.9064 221.569 79.0142 220.391 79.0142C219.212 79.0142 218.258 79.9064 218.258 81.0087C218.258 81.636 218.567 82.1952 219.051 82.5603" stroke="#8D959C" stroke-linecap="round"/>
<path d="M220.746 80.4326V93.9078" stroke="#8D959C" stroke-linecap="round"/>
<path d="M220.391 91.7803L222.523 89.6526" stroke="#8D959C" stroke-linecap="round"/>
<path d="M220.391 86.1064L218.969 84.688" stroke="#8D959C" stroke-linecap="round"/>
<path d="M420.151 88.2341C421.439 88.9901 422.297 90.3344 422.297 91.8676C422.297 93.9056 420.777 95.6096 418.742 96.0356" stroke="#8D959C" stroke-linecap="round"/>
<path d="M415.791 88.2341C414.575 88.9627 413.766 90.2572 413.766 91.7332C413.766 93.7628 415.295 95.4505 417.308 95.7899L417.32 95.9686L417.319 101" stroke="#8D959C" stroke-linecap="round"/>
<path d="M415.669 88.2341C414.939 87.6122 414.477 86.6996 414.477 85.6843C414.477 84.2825 415.355 83.0781 416.609 82.5603" stroke="#8D959C" stroke-linecap="round"/>
<path d="M419.453 82.5603C420.707 83.0781 421.586 84.2821 421.586 85.6839C421.586 86.6992 421.124 87.6122 420.393 88.2341" stroke="#8D959C" stroke-linecap="round"/>
<path d="M419.371 82.5603C419.855 82.1952 420.164 81.636 420.164 81.0087C420.164 79.9064 419.21 79.0142 418.031 79.0142C416.853 79.0142 415.898 79.9064 415.898 81.0087C415.898 81.636 416.208 82.1952 416.692 82.5603" stroke="#8D959C" stroke-linecap="round"/>
<path d="M417.676 80.4326V93.9078" stroke="#8D959C" stroke-linecap="round"/>
<path d="M418.031 91.7803L420.164 89.6526" stroke="#8D959C" stroke-linecap="round"/>
<path d="M418.031 86.1064L416.609 84.688" stroke="#8D959C" stroke-linecap="round"/>
<path d="M428.829 91.0708C429.603 91.6207 430.117 92.5986 430.117 93.7132C430.117 95.1953 429.206 96.4346 427.984 96.7446" stroke="#8D959C" stroke-linecap="round"/>
<path d="M426.05 91.0708C425.077 91.5967 424.43 92.5319 424.43 93.5979C424.43 95.0638 425.654 96.2823 427.264 96.5281L427.273 96.6569L427.273 100.291" stroke="#8D959C" stroke-linecap="round"/>
<path d="M425.936 91.7802C425.448 91.3138 425.141 90.6295 425.141 89.8677C425.141 88.8168 425.726 87.9134 426.562 87.5249" stroke="#8D959C" stroke-linecap="round"/>
<path d="M428.695 87.5249C429.531 87.9134 430.117 88.8164 430.117 89.8677C430.117 90.6291 429.809 91.3134 429.322 91.7802" stroke="#8D959C" stroke-linecap="round"/>
<path d="M428.166 87.5249C428.489 87.233 428.695 86.7852 428.695 86.2838C428.695 85.4023 428.059 84.688 427.273 84.688C426.488 84.688 425.852 85.4023 425.852 86.2838C425.852 86.7852 426.057 87.233 426.38 87.5249" stroke="#8D959C" stroke-linecap="round"/>
<path d="M427.629 86.1064V96.0355" stroke="#8D959C" stroke-linecap="round"/>
<path d="M427.273 93.9077L428.695 92.4893" stroke="#8D959C" stroke-linecap="round"/>
<path d="M427.273 89.6526L426.562 88.9434" stroke="#8D959C" stroke-linecap="round"/>
<path d="M214.126 91.0708C214.9 91.6207 215.414 92.5986 215.414 93.7132C215.414 95.1953 214.502 96.4346 213.281 96.7446" stroke="#8D959C" stroke-linecap="round"/>
<path d="M211.347 91.0708C210.374 91.6244 209.727 92.6088 209.727 93.7308C209.727 95.2738 210.95 96.5563 212.561 96.8151L212.57 96.9507L212.57 99.5814" stroke="#8D959C" stroke-linecap="round"/>
<path d="M211.233 91.7802C210.745 91.3138 210.438 90.6295 210.438 89.8677C210.438 88.8168 211.023 87.9134 211.859 87.5249" stroke="#8D959C" stroke-linecap="round"/>
<path d="M213.281 87.5249C214.117 87.9134 214.703 88.8164 214.703 89.8677C214.703 90.6291 214.395 91.3134 213.908 91.7802" stroke="#8D959C" stroke-linecap="round"/>
<path d="M213.463 87.5249C213.786 87.233 213.992 86.7852 213.992 86.2838C213.992 85.4023 213.356 84.688 212.57 84.688C211.785 84.688 211.148 85.4023 211.148 86.2838C211.148 86.7852 211.354 87.233 211.677 87.5249" stroke="#8D959C" stroke-linecap="round"/>
<path d="M212.926 86.1064V96.0355" stroke="#8D959C" stroke-linecap="round"/>
<path d="M212.57 93.9077L213.992 92.4893" stroke="#8D959C" stroke-linecap="round"/>
<path d="M212.57 89.6526L211.859 88.9434" stroke="#8D959C" stroke-linecap="round"/>
<path d="M40.5101 88.2341C41.7987 88.9901 42.6562 90.3344 42.6562 91.8676C42.6562 93.9056 41.1366 95.6096 39.1016 96.0356" stroke="#8D959C" stroke-linecap="round"/>
<path d="M35.4399 88.2341C34.2236 88.9222 33.4141 90.1448 33.4141 91.5389C33.4141 93.4556 34.9437 95.0496 36.9566 95.3701L36.9688 95.5389L36.9675 100.291" stroke="#8D959C" stroke-linecap="round"/>
<path d="M36.0286 88.2341C35.2977 87.6122 34.8359 86.6996 34.8359 85.6843C34.8359 84.2825 35.7148 83.0781 36.9688 82.5603" stroke="#8D959C" stroke-linecap="round"/>
<path d="M39.1016 82.5603C40.3555 83.0781 41.2344 84.2821 41.2344 85.6839C41.2344 86.6992 40.7722 87.6122 40.0417 88.2341" stroke="#8D959C" stroke-linecap="round"/>
<path d="M39.0191 82.5603C39.5033 82.1952 39.8125 81.636 39.8125 81.0087C39.8125 79.9064 38.8579 79.0142 37.6799 79.0142C36.5015 79.0142 35.5469 79.9064 35.5469 81.0087C35.5469 81.636 35.8561 82.1952 36.3402 82.5603" stroke="#8D959C" stroke-linecap="round"/>
<path d="M38.0352 80.4326V93.9078" stroke="#8D959C" stroke-linecap="round"/>
<path d="M38.3906 92.4895L40.5234 90.3618" stroke="#8D959C" stroke-linecap="round"/>
<path d="M37.6797 86.1064L36.2578 84.688" stroke="#8D959C" stroke-linecap="round"/>
<path fill-rule="evenodd" clip-rule="evenodd" d="M230.344 66.9575H209.668C208.13 66.9575 206.883 65.7299 206.883 64.215V64.1206H230.344V66.9575Z" stroke="#8D959C" stroke-linecap="round"/>
<path fill-rule="evenodd" clip-rule="evenodd" d="M230.344 71.9221H209.668C208.13 71.9221 206.883 70.6945 206.883 69.1796V69.0852H230.344V71.9221Z" stroke="#8D959C" stroke-linecap="round"/>
<path fill-rule="evenodd" clip-rule="evenodd" d="M230.344 76.8864H209.668C208.13 76.8864 206.883 75.6589 206.883 74.144V74.0496H230.344V76.8864Z" stroke="#8D959C" stroke-linecap="round"/>
<path d="M115.883 82.2057H61.8516" stroke="#8D959C" stroke-linecap="round"/>
<path d="M122.637 91.071V88.2341" stroke="#8D959C" stroke-linecap="round"/>
<path d="M124.288 88.234H127.258L124.434 77.4675C124.231 76.6928 123.175 76.6928 122.972 77.4675L120.148 88.234H122.724" stroke="#8D959C" stroke-linecap="round"/>
<path d="M124.77 89.6526V88.2341" stroke="#8D959C" stroke-linecap="round"/>
<path d="M148.941 91.071V88.2341" stroke="#8D959C" stroke-linecap="round"/>
<path d="M149.881 88.234H152.852L150.028 77.4675C149.825 76.6928 148.769 76.6928 148.566 77.4675L145.742 88.234H148.317" stroke="#8D959C" stroke-linecap="round"/>
<path d="M150.363 89.6526V88.2341" stroke="#8D959C" stroke-linecap="round"/>
<path d="M23.8164 68.3759V66.2483" stroke="#8D959C" stroke-linecap="round"/>
<path d="M24.2257 66.2482H26.3047L24.3286 58.8458C24.1863 58.3138 23.4469 58.3138 23.3046 58.8458L21.3281 66.2482H23.1309" stroke="#8D959C" stroke-linecap="round"/>
<path d="M273.711 91.071C274.049 90.8466 274.392 90.6194 274.789 90.4823C275.186 90.3453 275.651 90.307 276.039 90.4637C276.474 90.6398 276.795 91.0471 277.277 91.0635C277.776 91.08 278.136 90.6695 278.592 90.4966C278.909 90.3764 279.286 90.3764 279.603 90.4966C280.007 90.6502 280.313 90.9859 280.749 91.0531C281.47 91.1648 282.051 90.5006 282.779 90.4294C283.379 90.3703 283.916 90.7217 284.375 91.0556" stroke="#8D959C" stroke-linecap="round"/>
<path d="M273.711 92.4893C274.049 92.265 274.392 92.0378 274.789 91.9005C275.186 91.7635 275.651 91.7252 276.039 91.8819C276.474 92.0579 276.795 92.4649 277.277 92.4814C277.776 92.4982 278.136 92.0879 278.592 91.9148C278.909 91.7946 279.286 91.7946 279.603 91.9151C280.007 92.0682 280.313 92.4038 280.749 92.471C281.47 92.5826 282.051 91.9191 282.779 91.8475C283.379 91.7889 283.916 92.1398 284.375 92.4739" stroke="#8D959C" stroke-linecap="round"/>
<path d="M273.711 93.9077C274.049 93.6833 274.392 93.4561 274.789 93.319C275.186 93.1819 275.651 93.1436 276.039 93.3004C276.474 93.4765 276.795 93.8837 277.277 93.9002C277.776 93.9167 278.136 93.5062 278.592 93.3333C278.909 93.2131 279.286 93.2131 279.603 93.3333C280.007 93.4868 280.313 93.8225 280.749 93.8898C281.47 94.0015 282.051 93.3372 282.779 93.266C283.379 93.207 283.916 93.5584 284.375 93.8927" stroke="#8D959C" stroke-linecap="round"/>
<path d="M232.789 22.6818C233.712 23.3221 234.829 23.6949 236.031 23.6949C239.172 23.6949 241.719 21.1539 241.719 18.0212C241.719 14.8884 239.172 12.3474 236.031 12.3474C232.891 12.3474 230.344 14.8884 230.344 18.0212C230.344 18.4629 230.397 18.8925 230.49 19.3059" stroke="#8D959C" stroke-linecap="round"/>
<path d="M323.477 78.305L328.796 44.2625H341.25V54.6836" stroke="#8D959C" stroke-linecap="round"/>
<path d="M335.207 44.2624V37.1702" stroke="#8D959C" stroke-linecap="round"/>
<path d="M68.25 75.4681V64.8298H71.8047" stroke="#8D959C" stroke-linecap="round"/>
<path d="M98.6172 73.3404V65.4941H97.3984V40.7163H111.617" stroke="#8D959C" stroke-linecap="round"/>
<path d="M122.281 20.8582H128.68V47.0993" stroke="#8D959C" stroke-linecap="round"/>
<path d="M332.719 78.6595H319.922" stroke="#8D959C" stroke-linecap="round"/>
<path d="M154.273 47.454V31.142" stroke="#8D959C" stroke-linecap="round"/>
<path d="M96.6875 63.766H84.6016" stroke="#8D959C" stroke-linecap="round"/>
<path d="M564.244 40.7163V24.1767C564.244 22.7359 565.514 21.5674 567.081 21.5674" stroke="#8D959C" stroke-linecap="round"/>
<path d="M577.012 47.8086H608.547C610.72 47.8086 612.481 49.5594 612.481 51.7194V56.3192" stroke="#8D959C" stroke-linecap="round"/>
<path d="M609.644 77.5957V59.6459C609.644 58.9313 609.874 58.2689 610.267 57.7282C610.879 56.8767 611.895 56.3191 613.042 56.3191H623.419H635.891" stroke="#8D959C" stroke-linecap="round"/>
<path d="M635.891 76.1774V41.6434C635.891 38.6477 637.122 35.931 639.109 33.9687C641.142 31.9584 643.974 30.7326 647.09 30.7892C653.128 30.8988 657.881 35.939 657.881 41.8903V56.9125" stroke="#8D959C" stroke-linecap="round"/>
<path d="M576.303 21.5673V13.0566H569.33C567.696 13.0566 566.372 14.4078 566.372 16.0743V21.5673" stroke="#8D959C" stroke-linecap="round"/>
<path d="M526.647 64.8297V56.8637C526.647 54.2128 528.859 52.0637 531.588 52.0637H534.45" stroke="#8D959C" stroke-linecap="round"/>
<path d="M539.416 64.8298V52.0482V42.844H534.45V51.8456" stroke="#8D959C" stroke-linecap="round"/>
<path d="M638.728 42.1347V42.1347C638.728 37.4346 642.539 33.624 647.24 33.624C651.942 33.624 655.753 37.4346 655.753 42.1347" stroke="#8D959C" stroke-linecap="round"/>
<path d="M640.856 42.1347V42.1347C640.856 38.6092 643.556 35.7517 646.886 35.7517C650.216 35.7517 652.916 38.6092 652.916 42.1347" stroke="#8D959C" stroke-linecap="round"/>
<path d="M567.791 51.3546V24.8628C567.791 24.2182 568.253 23.6951 568.824 23.6951H568.885C569.456 23.6951 569.919 24.2182 569.919 24.8628V39.1283V44.54" stroke="#8D959C" stroke-linecap="round"/>
<path d="M572.047 38.5887V24.9002C572.047 24.235 572.509 23.6951 573.08 23.6951H573.142C573.712 23.6951 574.175 24.235 574.175 24.9002V34.0379" stroke="#8D959C" stroke-linecap="round"/>
<path d="M613.191 74.0496V67.4764C613.191 63.2726 616.684 59.8652 620.994 59.8652V70.0438" stroke="#8D959C" stroke-linecap="round"/>
<path fill-rule="evenodd" clip-rule="evenodd" d="M632.051 62.7021H625.542C624.989 62.7021 624.541 62.2315 624.541 61.6506V61.626C624.541 61.0451 624.989 60.5745 625.542 60.5745H632.051C632.605 60.5745 633.053 61.0451 633.053 61.626V61.6506C633.053 62.2315 632.605 62.7021 632.051 62.7021Z" stroke="#8D959C" stroke-linecap="round"/>
<path fill-rule="evenodd" clip-rule="evenodd" d="M632.051 66.2483H625.542C624.989 66.2483 624.541 65.7776 624.541 65.1968V65.1721C624.541 64.5912 624.989 64.1206 625.542 64.1206H632.051C632.605 64.1206 633.053 64.5912 633.053 65.1721V65.1968C633.053 65.7776 632.605 66.2483 632.051 66.2483Z" stroke="#8D959C" stroke-linecap="round"/>
<path fill-rule="evenodd" clip-rule="evenodd" d="M632.051 69.7944H625.542C624.989 69.7944 624.541 69.3238 624.541 68.7429V68.7182C624.541 68.1374 624.989 67.6667 625.542 67.6667H632.051C632.605 67.6667 633.053 68.1374 633.053 68.7182V68.7429C633.053 69.3238 632.605 69.7944 632.051 69.7944Z" stroke="#8D959C" stroke-linecap="round"/>
<path fill-rule="evenodd" clip-rule="evenodd" d="M632.051 73.3405H625.542C624.989 73.3405 624.541 72.8699 624.541 72.2891V72.2644C624.541 71.6835 624.989 71.2129 625.542 71.2129H632.051C632.605 71.2129 633.053 71.6835 633.053 72.2644V72.2891C633.053 72.8699 632.605 73.3405 632.051 73.3405Z" stroke="#8D959C" stroke-linecap="round"/>
<path d="M706.119 88.5887H703.281" stroke="#8D959C" stroke-linecap="round"/>
<path d="M665.956 87.5248C661.224 85.6902 657.881 81.1813 657.881 75.9126V60.2461V57.0283H688.384" stroke="#8D959C" stroke-linecap="round"/>
<path d="M669.231 88.5249C669.71 88.61 670.197 88.6526 670.689 88.6526H672.778" stroke="#8D959C" stroke-linecap="round"/>
<path d="M678.453 88.5887H687.873H691.222" stroke="#8D959C" stroke-linecap="round"/>
<path d="M688.384 60.5744H657.881V57.0283" stroke="#8D959C" stroke-linecap="round"/>
<path fill-rule="evenodd" clip-rule="evenodd" d="M639.792 81.8511V81.8511C639.204 81.8511 638.728 81.4025 638.728 80.849V45.9738C638.728 45.4202 639.204 44.9717 639.792 44.9717C640.38 44.9717 640.856 45.4202 640.856 45.9738V80.849C640.856 81.4025 640.38 81.8511 639.792 81.8511Z" stroke="#8D959C" stroke-linecap="round"/>
<path fill-rule="evenodd" clip-rule="evenodd" d="M644.758 81.8511V81.8511C644.17 81.8511 643.694 81.4025 643.694 80.849V45.9738C643.694 45.4202 644.17 44.9717 644.758 44.9717C645.346 44.9717 645.822 45.4202 645.822 45.9738V80.849C645.822 81.4025 645.346 81.8511 644.758 81.8511Z" stroke="#8D959C" stroke-linecap="round"/>
<path fill-rule="evenodd" clip-rule="evenodd" d="M649.723 81.8511V81.8511C649.136 81.8511 648.659 81.4025 648.659 80.849V45.9738C648.659 45.4202 649.136 44.9717 649.723 44.9717C650.311 44.9717 650.788 45.4202 650.788 45.9738V80.849C650.788 81.4025 650.311 81.8511 649.723 81.8511Z" stroke="#8D959C" stroke-linecap="round"/>
<path fill-rule="evenodd" clip-rule="evenodd" d="M654.689 81.8511V81.8511C654.101 81.8511 653.625 81.4025 653.625 80.849V45.9738C653.625 45.4202 654.101 44.9717 654.689 44.9717C655.277 44.9717 655.753 45.4202 655.753 45.9738V80.849C655.753 81.4025 655.277 81.8511 654.689 81.8511Z" stroke="#8D959C" stroke-linecap="round"/>
<path d="M646.886 35.7517V34.3333" stroke="#8D959C" stroke-linecap="round"/>
<path d="M651.497 37.1702L652.206 36.4609" stroke="#8D959C" stroke-linecap="round"/>
<path d="M642.275 37.1702L641.566 36.4609" stroke="#8D959C" stroke-linecap="round"/>
<path fill-rule="evenodd" clip-rule="evenodd" d="M591.2 80.4325H584.816V59.4366C584.816 56.1483 587.636 53.4822 591.116 53.4822H591.2V80.4325Z" stroke="#8D959C" stroke-linecap="round"/>
<path fill-rule="evenodd" clip-rule="evenodd" d="M599.003 80.4325H592.619V53.4822H592.703C596.182 53.4822 599.003 56.1483 599.003 59.4366V80.4325Z" stroke="#8D959C" stroke-linecap="round"/>
<path fill-rule="evenodd" clip-rule="evenodd" d="M660.232 22.3658C660.503 19.7899 662.601 17.812 665.122 17.812C666.821 17.812 668.325 18.7103 669.211 20.0856L669.346 20.2957L669.595 20.3136C670.672 20.391 671.624 20.9419 672.259 21.7768L672.464 22.0466L672.791 21.9559C673.041 21.8864 673.297 21.8475 673.561 21.8475C673.96 21.8475 674.339 21.9285 674.684 22.0769C674.842 22.1448 675.016 22.1249 675.151 22.0391C675.362 22.1561 675.556 22.2953 675.727 22.4527C675.675 22.6106 675.703 22.791 675.816 22.9288C676.198 23.3909 676.451 23.9719 676.517 24.6134H657.266C657.839 23.6838 658.761 23.0154 659.832 22.8041L660.194 22.7327L660.232 22.3658ZM676.932 22.7766C677.343 23.4556 677.568 24.2672 677.53 25.1323L677.522 25.3217L677.391 25.4581L677.389 25.4594L677.388 25.4607L677.241 25.6134H677.028H656.463H655.734L655.996 24.9334C656.562 23.4655 657.777 22.3262 659.285 21.9068C659.754 19.0269 662.175 16.812 665.122 16.812C667.1 16.812 668.843 17.8149 669.914 19.3407C671.079 19.4875 672.106 20.0682 672.847 20.9163C673.077 20.8721 673.315 20.8475 673.561 20.8475C673.916 20.8475 674.262 20.8955 674.591 20.9865C675.029 20.5637 675.584 20.2485 676.203 20.0804C676.611 18.188 678.414 16.812 680.518 16.812C681.942 16.812 683.219 17.4404 684.026 18.4267C684.842 18.5277 685.572 18.8857 686.116 19.4161C686.271 19.3925 686.43 19.38 686.592 19.38C688.248 19.38 689.67 20.6559 689.591 22.2972L689.579 22.5448L689.403 22.6654L689.282 22.7766H689.088H676.932ZM677.137 20.5538C677.316 19.0449 678.727 17.812 680.518 17.812C681.717 17.812 682.758 18.3729 683.359 19.1986L683.498 19.3884L683.732 19.4032C684.486 19.4505 685.137 19.791 685.563 20.2862L685.764 20.5199L686.063 20.4456C686.233 20.4031 686.41 20.38 686.592 20.38C687.578 20.38 688.346 21.0003 688.544 21.7766H676.468C676.28 21.5962 676.073 21.434 675.851 21.2923C676.115 21.1478 676.41 21.0426 676.726 20.9873L677.093 20.9232L677.137 20.5538Z" fill="#8D959C"/>
<path fill-rule="evenodd" clip-rule="evenodd" d="M789.364 28.7483C789.638 26.1751 791.751 24.1951 794.297 24.1951C796.015 24.1951 797.532 25.0962 798.425 26.4698L798.56 26.6783L798.808 26.6961C799.89 26.7737 800.847 27.3203 801.489 28.1483C801.659 28.3665 801.973 28.4061 802.191 28.2369C802.409 28.0676 802.449 27.7535 802.279 27.5353C801.521 26.5583 800.405 25.8826 799.126 25.7229C798.047 24.1981 796.29 23.1951 794.297 23.1951C791.333 23.1951 788.892 25.4054 788.418 28.2878C786.898 28.7059 785.675 29.8457 785.103 31.3151L784.838 31.9965H785.569H801.647C801.923 31.9965 802.147 31.7726 802.147 31.4965C802.147 31.2203 801.923 30.9965 801.647 30.9965H786.375C786.953 30.0669 787.882 29.3975 788.963 29.1863L789.325 29.1154L789.364 28.7483ZM809.405 23.1951C807.135 23.1951 805.188 24.7345 804.935 26.8162C804.902 27.0903 805.097 27.3396 805.371 27.3728C805.645 27.4061 805.894 27.2109 805.928 26.9368C806.11 25.437 807.556 24.1951 809.405 24.1951C810.645 24.1951 811.717 24.7592 812.334 25.5867L812.474 25.7732L812.706 25.7868C813.486 25.8326 814.157 26.1751 814.594 26.673L814.795 26.9021L815.091 26.8281C815.263 26.7852 815.443 26.7631 815.635 26.7631C816.661 26.7631 817.446 27.3905 817.649 28.1596H805.798C805.522 28.1596 805.298 28.3835 805.298 28.6596C805.298 28.9357 805.522 29.1596 805.798 29.1596H818.193C818.271 29.1596 818.363 29.1414 818.451 29.0886C818.539 29.0361 818.597 28.9655 818.633 28.9018C818.667 28.8411 818.682 28.7852 818.689 28.748C818.692 28.7284 818.694 28.7107 818.696 28.6957L818.697 28.6818C818.783 27.0264 817.313 25.7631 815.635 25.7631C815.467 25.7631 815.302 25.7751 815.141 25.7996C814.581 25.264 813.83 24.9063 812.994 24.8086C812.166 23.8195 810.859 23.1951 809.405 23.1951Z" fill="#8D959C"/>
<path fill-rule="evenodd" clip-rule="evenodd" d="M515.52 25.9118C515.79 23.336 517.887 21.3582 520.409 21.3582C522.109 21.3582 523.612 22.2564 524.498 23.6318L524.633 23.8419L524.883 23.8598C525.96 23.9372 526.912 24.488 527.547 25.3229L527.752 25.5928L528.078 25.502C528.328 25.4325 528.585 25.3937 528.848 25.3937C529.248 25.3937 529.626 25.4747 529.971 25.623C530.129 25.691 530.303 25.6711 530.438 25.5851C530.649 25.7022 530.843 25.8414 531.015 25.9989C530.963 26.1567 530.99 26.3372 531.104 26.4749C531.485 26.9371 531.739 27.518 531.805 28.1596H512.553C513.126 27.23 514.049 26.5616 515.119 26.3503L515.481 26.2788L515.52 25.9118ZM532.219 26.3227C532.631 27.0018 532.855 27.8133 532.818 28.6785L532.807 28.927L532.617 29.0583C532.612 29.0625 532.606 29.0668 532.6 29.071L532.471 29.1596H532.315H511.75H511.021L511.283 28.4797C511.849 27.0116 513.064 25.8723 514.573 25.453C515.041 22.573 517.462 20.3582 520.409 20.3582C522.387 20.3582 524.13 21.3611 525.202 22.8868C526.366 23.0337 527.394 23.6143 528.134 24.4624C528.364 24.4182 528.602 24.3937 528.848 24.3937C529.204 24.3937 529.549 24.4416 529.878 24.5327C530.317 24.1099 530.872 23.7946 531.491 23.6265C531.899 21.7341 533.702 20.3582 535.805 20.3582C537.229 20.3582 538.506 20.9865 539.314 21.9728C540.129 22.0738 540.859 22.4318 541.403 22.9622C541.558 22.9387 541.717 22.9261 541.88 22.9261C543.536 22.9261 544.957 24.202 544.878 25.8433L544.866 26.091L544.691 26.2116L544.569 26.3227H544.375H532.219ZM532.425 24.0998C532.604 22.591 534.015 21.3582 535.805 21.3582C537.005 21.3582 538.045 21.919 538.647 22.7447L538.785 22.9346L539.02 22.9493C539.774 22.9966 540.425 23.3372 540.85 23.8322L541.051 24.0661L541.35 23.9917C541.521 23.9492 541.697 23.9261 541.88 23.9261C542.865 23.9261 543.633 24.5465 543.831 25.3227H531.756C531.568 25.1424 531.361 24.9802 531.138 24.8385C531.402 24.6939 531.698 24.5887 532.014 24.5334L532.381 24.4693L532.425 24.0998Z" fill="#8D959C"/>
<path fill-rule="evenodd" clip-rule="evenodd" d="M570.628 80.9878V88.9433H516.716V81.0567C516.883 80.8456 517.075 80.6353 517.283 80.4326H570.118C570.301 80.6105 570.473 80.7974 570.628 80.9878Z" stroke="#8D959C" stroke-linecap="round"/>
<path d="M517.425 80.4326C517.165 80.6629 516.925 80.9024 516.716 81.1418" stroke="#8D959C" stroke-linecap="round"/>
<path d="M570.628 81.1418C570.412 80.8985 570.174 80.6599 569.919 80.4326" stroke="#8D959C" stroke-linecap="round"/>
<path fill-rule="evenodd" clip-rule="evenodd" d="M569.919 80.4325H517.425C518.638 79.1542 520.448 77.9991 522.725 77.0011C527.854 74.7545 535.337 73.3403 543.672 73.3403C547.032 73.3403 550.254 73.5697 553.241 73.9901C560.943 75.0777 567.07 77.447 569.919 80.4325Z" stroke="#8D959C" stroke-linecap="round"/>
<path d="M569.919 80.4326C570.179 80.6487 570.401 80.8688 570.59 81.0952C570.604 81.1085 570.619 81.1252 570.628 81.1418" stroke="#8D959C" stroke-linecap="round"/>
<path d="M516.006 81.8511C516.017 81.8364 516.027 81.8218 516.043 81.8072C516.232 81.5805 516.458 81.3608 516.716 81.1418" stroke="#8D959C" stroke-linecap="round"/>
<path d="M623.477 56.3193V30.7874" stroke="#8D959C" stroke-linecap="round"/>
<path fill-rule="evenodd" clip-rule="evenodd" d="M607.516 30.7873L614.358 22.9858H618.297L625.25 30.7873H607.516Z" stroke="#8D959C" stroke-linecap="round"/>
<path fill-rule="evenodd" clip-rule="evenodd" d="M529.484 59.156H530.903V55.6099H529.484V59.156Z" stroke="#8D959C" stroke-linecap="round"/>
<path fill-rule="evenodd" clip-rule="evenodd" d="M529.484 64.1206H530.903V60.5745H529.484V64.1206Z" stroke="#8D959C" stroke-linecap="round"/>
<path fill-rule="evenodd" clip-rule="evenodd" d="M532.322 64.1206H533.741V60.5745H532.322V64.1206Z" stroke="#8D959C" stroke-linecap="round"/>
<path fill-rule="evenodd" clip-rule="evenodd" d="M554.312 47.0993H555.731V43.5532H554.312V47.0993Z" stroke="#8D959C" stroke-linecap="round"/>
<path fill-rule="evenodd" clip-rule="evenodd" d="M557.859 47.0993H559.278V43.5532H557.859V47.0993Z" stroke="#8D959C" stroke-linecap="round"/>
<path fill-rule="evenodd" clip-rule="evenodd" d="M554.312 52.7731H555.731V49.2271H554.312V52.7731Z" stroke="#8D959C" stroke-linecap="round"/>
<path fill-rule="evenodd" clip-rule="evenodd" d="M557.859 52.7731H559.278V49.2271H557.859V52.7731Z" stroke="#8D959C" stroke-linecap="round"/>
<path fill-rule="evenodd" clip-rule="evenodd" d="M554.312 58.4467H555.731V54.9006H554.312V58.4467Z" stroke="#8D959C" stroke-linecap="round"/>
<path fill-rule="evenodd" clip-rule="evenodd" d="M557.859 58.4467H559.278V54.9006H557.859V58.4467Z" stroke="#8D959C" stroke-linecap="round"/>
<path d="M761.45 76.8865H757.903V76.9793V88.234" stroke="#8D959C" stroke-linecap="round"/>
<path d="M786.988 86.1063V54.9006H799.756" stroke="#8D959C" stroke-linecap="round"/>
<path d="M761.45 79.0142V71.0483C761.45 68.3974 763.662 66.2483 766.391 66.2483H769.253" stroke="#8D959C" stroke-linecap="round"/>
<path d="M774.219 81.851V66.1564V59.5153C774.219 58.1418 773.139 57.0283 771.808 57.0283H771.664C770.333 57.0283 769.253 58.1418 769.253 59.5153V66.0906" stroke="#8D959C" stroke-linecap="round"/>
<path fill-rule="evenodd" clip-rule="evenodd" d="M764.288 73.3405H765.706V69.7944H764.288V73.3405Z" stroke="#8D959C" stroke-linecap="round"/>
<path fill-rule="evenodd" clip-rule="evenodd" d="M764.288 78.3049H765.706V74.7588H764.288V78.3049Z" stroke="#8D959C" stroke-linecap="round"/>
<path fill-rule="evenodd" clip-rule="evenodd" d="M767.834 78.3049H769.253V74.7588H767.834V78.3049Z" stroke="#8D959C" stroke-linecap="round"/>
<path fill-rule="evenodd" clip-rule="evenodd" d="M789.825 61.2836H791.244V57.7375H789.825V61.2836Z" stroke="#8D959C" stroke-linecap="round"/>
<path fill-rule="evenodd" clip-rule="evenodd" d="M792.663 61.2836H794.081V57.7375H792.663V61.2836Z" stroke="#8D959C" stroke-linecap="round"/>
<path fill-rule="evenodd" clip-rule="evenodd" d="M789.825 66.9575H791.244V63.4114H789.825V66.9575Z" stroke="#8D959C" stroke-linecap="round"/>
<path fill-rule="evenodd" clip-rule="evenodd" d="M792.663 66.9575H794.081V63.4114H792.663V66.9575Z" stroke="#8D959C" stroke-linecap="round"/>
<path fill-rule="evenodd" clip-rule="evenodd" d="M789.825 72.6313H791.244V69.0852H789.825V72.6313Z" stroke="#8D959C" stroke-linecap="round"/>
<path fill-rule="evenodd" clip-rule="evenodd" d="M792.663 72.6313H794.081V69.0852H792.663V72.6313Z" stroke="#8D959C" stroke-linecap="round"/>
<path fill-rule="evenodd" clip-rule="evenodd" d="M706.473 54.5461V88.5887H702.926V62.7021L692.286 55.9645V88.5887H688.384V41.4255L706.473 54.5461Z" stroke="#8D959C" stroke-linecap="round"/>
<path d="M746.553 79.3688H718.887" stroke="#8D959C" stroke-linecap="round"/>
<path d="M757.903 79.3688H753.647" stroke="#8D959C" stroke-linecap="round"/>
<path d="M757.903 88.5887H753.647" stroke="#8D959C" stroke-linecap="round"/>
<path d="M711.794 92.4894H706.828V83.2695H711.794" stroke="#8D959C" stroke-linecap="round"/>
<path d="M746.553 88.5887H718.887" stroke="#8D959C" stroke-linecap="round"/>
<path d="M562.825 65.1844H577.722" stroke="#8D959C" stroke-linecap="round"/>
<path d="M562.825 66.6029H577.722" stroke="#8D959C" stroke-linecap="round"/>
<path d="M562.825 68.0214H577.722" stroke="#8D959C" stroke-linecap="round"/>
<path d="M818.2 88.9174L809.075 60.1062C808.096 56.8291 807.489 53.455 807.261 50.0486L805.993 31.1334L805.712 26.9067L804.64 10.9292H803.23L802.113 27.6219L801.877 31.1334L800.609 50.0486C800.381 53.455 799.774 56.8291 798.796 60.1062L789.116 92.4895" stroke="#8D959C" stroke-linecap="round"/>
<path fill-rule="evenodd" clip-rule="evenodd" d="M804.013 6.67375H803.303L803.658 0.290771L804.013 6.67375Z" stroke="#8D959C" stroke-linecap="round"/>
<path fill-rule="evenodd" clip-rule="evenodd" d="M808.978 8.80149C808.978 9.3895 808.734 9.92334 808.344 10.3067C807.953 10.6893 807.41 10.9291 806.81 10.9291H800.505C799.307 10.9291 798.337 9.9775 798.337 8.80149C798.337 8.21348 798.582 7.67963 798.972 7.29627C799.362 6.91367 799.906 6.67383 800.505 6.67383H806.81C808.009 6.67383 808.978 7.62547 808.978 8.80149Z" stroke="#8D959C" stroke-linecap="round"/>
<path d="M801.175 8.4469H807.559" stroke="#8D959C" stroke-linecap="round"/>
<path fill-rule="evenodd" clip-rule="evenodd" d="M711.794 92.4893H718.887V77.5957H711.794V92.4893Z" stroke="#8D959C" stroke-linecap="round"/>
<path fill-rule="evenodd" clip-rule="evenodd" d="M746.553 92.4893H753.647V77.5957H746.553V92.4893Z" stroke="#8D959C" stroke-linecap="round"/>
<path d="M711.794 77.5957L718.178 85.2438L711.794 92.4893" stroke="#8D959C" stroke-linecap="round"/>
<path d="M746.553 77.5957L752.938 85.2438L746.553 92.4893" stroke="#8D959C" stroke-linecap="round"/>
<path d="M718.888 77.5957L712.503 85.2438L718.888 92.4893" stroke="#8D959C" stroke-linecap="round"/>
<path d="M753.647 77.5957L747.262 85.2438L753.647 92.4893" stroke="#8D959C" stroke-linecap="round"/>
<path d="M746.553 85.7518H718.887" stroke="#8D959C" stroke-linecap="round"/>
<path d="M706.828 88.2341V86.1064H711.794" stroke="#8D959C" stroke-linecap="round"/>
<path d="M757.903 88.2341V86.1064H753.647" stroke="#8D959C" stroke-linecap="round"/>
<path d="M481.247 64.8298C481.435 64.8415 481.628 64.861 481.816 64.8805C485.027 65.2348 487.673 67.011 490.601 68.2022C494.73 69.8845 499.005 71.2163 503.543 71.2128C510.223 71.2085 516.334 68.284 523.1 69.1329" stroke="#8D959C" stroke-linecap="round"/>
<path d="M455.709 86.8157C457.686 82.8659 459.679 78.8921 462.311 75.3313C464.948 71.7705 468.282 68.6111 472.357 66.7865C473.608 66.2288 474.928 65.8041 476.281 65.5391" stroke="#8D959C" stroke-linecap="round"/>
<path d="M909 84.688C900.152 71.7352 885.038 64.7269 869.566 68.8451C864.367 70.2289 859.272 71.9994 854.338 74.1335C849.521 76.2179 844.992 79.2864 839.762 80.2555C829.478 82.1611 818.489 76.3344 811.816 68.9126" stroke="#8D959C" stroke-linecap="round"/>
<path d="M677.73 88.2341C679.016 88.9901 679.872 90.3344 679.872 91.8676C679.872 93.9056 678.356 95.6096 676.325 96.0356" stroke="#8D959C" stroke-linecap="round"/>
<path d="M673.381 88.2341C672.167 88.9627 671.359 90.2572 671.359 91.7332C671.359 93.7628 672.886 95.4505 674.894 95.7899L674.906 95.9686V100.291" stroke="#8D959C" stroke-linecap="round"/>
<path d="M673.259 88.2341C672.53 87.6122 672.069 86.6996 672.069 85.6843C672.069 84.2825 672.946 83.0781 674.197 82.5603" stroke="#8D959C" stroke-linecap="round"/>
<path d="M676.325 82.5603C677.576 83.0781 678.453 84.2821 678.453 85.6839C678.453 86.6992 677.992 87.6122 677.263 88.2341" stroke="#8D959C" stroke-linecap="round"/>
<path d="M676.243 82.5603C676.726 82.1952 677.034 81.636 677.034 81.0087C677.034 79.9064 676.082 79.0142 674.906 79.0142C673.731 79.0142 672.778 79.9064 672.778 81.0087C672.778 81.636 673.087 82.1952 673.57 82.5603" stroke="#8D959C" stroke-linecap="round"/>
<path d="M675.261 80.4326V93.9078" stroke="#8D959C" stroke-linecap="round"/>
<path d="M674.906 91.7803L677.034 89.6526" stroke="#8D959C" stroke-linecap="round"/>
<path d="M674.906 86.1064L673.488 84.688" stroke="#8D959C" stroke-linecap="round"/>
<path d="M874.227 88.2341C875.513 88.9901 876.369 90.3344 876.369 91.8676C876.369 93.9056 874.852 95.6096 872.822 96.0356" stroke="#8D959C" stroke-linecap="round"/>
<path d="M869.877 88.2341C868.664 88.9627 867.856 90.2572 867.856 91.7332C867.856 93.7628 869.383 95.4505 871.391 95.7899L871.403 95.9686L871.402 101" stroke="#8D959C" stroke-linecap="round"/>
<path d="M869.756 88.2341C869.027 87.6122 868.566 86.6996 868.566 85.6843C868.566 84.2825 869.443 83.0781 870.694 82.5603" stroke="#8D959C" stroke-linecap="round"/>
<path d="M873.531 82.5603C874.782 83.0781 875.659 84.2821 875.659 85.6839C875.659 86.6992 875.198 87.6122 874.469 88.2341" stroke="#8D959C" stroke-linecap="round"/>
<path d="M873.449 82.5603C873.932 82.1952 874.241 81.636 874.241 81.0087C874.241 79.9064 873.289 79.0142 872.113 79.0142C870.937 79.0142 869.984 79.9064 869.984 81.0087C869.984 81.636 870.293 82.1952 870.776 82.5603" stroke="#8D959C" stroke-linecap="round"/>
<path d="M871.758 80.4326V93.9078" stroke="#8D959C" stroke-linecap="round"/>
<path d="M872.113 91.7803L874.241 89.6526" stroke="#8D959C" stroke-linecap="round"/>
<path d="M872.113 86.1064L870.694 84.688" stroke="#8D959C" stroke-linecap="round"/>
<path d="M882.887 91.0708C883.658 91.6207 884.172 92.5986 884.172 93.7132C884.172 95.1953 883.262 96.4346 882.044 96.7446" stroke="#8D959C" stroke-linecap="round"/>
<path d="M880.114 91.0708C879.143 91.5967 878.497 92.5319 878.497 93.5979C878.497 95.0638 879.718 96.2823 881.325 96.5281L881.334 96.6569L881.333 100.291" stroke="#8D959C" stroke-linecap="round"/>
<path d="M880 91.7802C879.513 91.3138 879.206 90.6295 879.206 89.8677C879.206 88.8168 879.791 87.9134 880.625 87.5249" stroke="#8D959C" stroke-linecap="round"/>
<path d="M882.753 87.5249C883.587 87.9134 884.172 88.8164 884.172 89.8677C884.172 90.6291 883.864 91.3134 883.379 91.7802" stroke="#8D959C" stroke-linecap="round"/>
<path d="M882.225 87.5249C882.547 87.233 882.753 86.7852 882.753 86.2838C882.753 85.4023 882.118 84.688 881.334 84.688C880.55 84.688 879.916 85.4023 879.916 86.2838C879.916 86.7852 880.121 87.233 880.443 87.5249" stroke="#8D959C" stroke-linecap="round"/>
<path d="M881.689 86.1064V96.0355" stroke="#8D959C" stroke-linecap="round"/>
<path d="M881.334 93.9077L882.753 92.4893" stroke="#8D959C" stroke-linecap="round"/>
<path d="M881.334 89.6526L880.625 88.9434" stroke="#8D959C" stroke-linecap="round"/>
<path d="M668.656 91.0708C669.427 91.6207 669.941 92.5986 669.941 93.7132C669.941 95.1953 669.031 96.4346 667.812 96.7446" stroke="#8D959C" stroke-linecap="round"/>
<path d="M665.883 91.0708C664.912 91.6244 664.266 92.6088 664.266 93.7308C664.266 95.2738 665.487 96.5563 667.094 96.8151L667.103 96.9507L667.102 99.5814" stroke="#8D959C" stroke-linecap="round"/>
<path d="M665.769 91.7802C665.282 91.3138 664.975 90.6295 664.975 89.8677C664.975 88.8168 665.559 87.9134 666.394 87.5249" stroke="#8D959C" stroke-linecap="round"/>
<path d="M667.812 87.5249C668.647 87.9134 669.231 88.8164 669.231 89.8677C669.231 90.6291 668.924 91.3134 668.438 91.7802" stroke="#8D959C" stroke-linecap="round"/>
<path d="M667.994 87.5249C668.316 87.233 668.522 86.7852 668.522 86.2838C668.522 85.4023 667.887 84.688 667.103 84.688C666.319 84.688 665.684 85.4023 665.684 86.2838C665.684 86.7852 665.89 87.233 666.212 87.5249" stroke="#8D959C" stroke-linecap="round"/>
<path d="M667.458 86.1064V96.0355" stroke="#8D959C" stroke-linecap="round"/>
<path d="M667.103 93.9077L668.522 92.4893" stroke="#8D959C" stroke-linecap="round"/>
<path d="M667.103 89.6526L666.394 88.9434" stroke="#8D959C" stroke-linecap="round"/>
<path d="M495.421 88.2341C496.707 88.9901 497.563 90.3344 497.563 91.8676C497.563 93.9056 496.046 95.6096 494.016 96.0356" stroke="#8D959C" stroke-linecap="round"/>
<path d="M490.362 88.2341C489.148 88.9222 488.341 90.1448 488.341 91.5389C488.341 93.4556 489.867 95.0496 491.875 95.3701L491.887 95.5389L491.886 100.291" stroke="#8D959C" stroke-linecap="round"/>
<path d="M490.949 88.2341C490.22 87.6122 489.759 86.6996 489.759 85.6843C489.759 84.2825 490.636 83.0781 491.887 82.5603" stroke="#8D959C" stroke-linecap="round"/>
<path d="M494.016 82.5603C495.267 83.0781 496.144 84.2821 496.144 85.6839C496.144 86.6992 495.683 87.6122 494.954 88.2341" stroke="#8D959C" stroke-linecap="round"/>
<path d="M493.933 82.5603C494.416 82.1952 494.725 81.636 494.725 81.0087C494.725 79.9064 493.772 79.0142 492.597 79.0142C491.421 79.0142 490.469 79.9064 490.469 81.0087C490.469 81.636 490.777 82.1952 491.26 82.5603" stroke="#8D959C" stroke-linecap="round"/>
<path d="M492.952 80.4326V93.9078" stroke="#8D959C" stroke-linecap="round"/>
<path d="M493.306 92.4895L495.434 90.3618" stroke="#8D959C" stroke-linecap="round"/>
<path d="M492.597 86.1064L491.178 84.688" stroke="#8D959C" stroke-linecap="round"/>
<path fill-rule="evenodd" clip-rule="evenodd" d="M684.838 66.9575H664.207C662.672 66.9575 661.428 65.7299 661.428 64.215V64.1206H684.838V66.9575Z" stroke="#8D959C" stroke-linecap="round"/>
<path fill-rule="evenodd" clip-rule="evenodd" d="M684.838 71.9221H664.207C662.672 71.9221 661.428 70.6945 661.428 69.1796V69.0852H684.838V71.9221Z" stroke="#8D959C" stroke-linecap="round"/>
<path fill-rule="evenodd" clip-rule="evenodd" d="M684.838 76.8864H664.207C662.672 76.8864 661.428 75.6589 661.428 74.144V74.0496H684.838V76.8864Z" stroke="#8D959C" stroke-linecap="round"/>
<path d="M570.628 82.2057H516.716" stroke="#8D959C" stroke-linecap="round"/>
<path d="M577.367 91.071V88.2341" stroke="#8D959C" stroke-linecap="round"/>
<path d="M579.014 88.234H581.978L579.161 77.4675C578.958 76.6928 577.904 76.6928 577.702 77.4675L574.884 88.234H577.454" stroke="#8D959C" stroke-linecap="round"/>
<path d="M579.495 89.6526V88.2341" stroke="#8D959C" stroke-linecap="round"/>
<path d="M603.614 91.071V88.2341" stroke="#8D959C" stroke-linecap="round"/>
<path d="M604.552 88.234H607.516L604.698 77.4675C604.496 76.6928 603.442 76.6928 603.239 77.4675L600.422 88.234H602.991" stroke="#8D959C" stroke-linecap="round"/>
<path d="M605.033 89.6526V88.2341" stroke="#8D959C" stroke-linecap="round"/>
<path d="M478.764 68.3759V66.2483" stroke="#8D959C" stroke-linecap="round"/>
<path d="M479.172 66.2482H481.247L479.275 58.8458C479.133 58.3138 478.395 58.3138 478.253 58.8458L476.281 66.2482H478.08" stroke="#8D959C" stroke-linecap="round"/>
<path d="M728.109 91.071C728.446 90.8466 728.789 90.6194 729.185 90.4823C729.582 90.3453 730.045 90.307 730.432 90.4637C730.866 90.6398 731.187 91.0471 731.667 91.0635C732.166 91.08 732.524 90.6695 732.979 90.4966C733.296 90.3764 733.672 90.3764 733.988 90.4966C734.392 90.6502 734.697 90.9859 735.132 91.0531C735.851 91.1648 736.431 90.5006 737.157 90.4294C737.756 90.3703 738.292 90.7217 738.75 91.0556" stroke="#8D959C" stroke-linecap="round"/>
<path d="M728.109 92.4893C728.446 92.265 728.789 92.0378 729.185 91.9005C729.582 91.7635 730.045 91.7252 730.432 91.8819C730.866 92.0579 731.187 92.4649 731.667 92.4814C732.166 92.4982 732.524 92.0879 732.979 91.9148C733.296 91.7946 733.672 91.7946 733.988 91.9151C734.392 92.0682 734.697 92.4038 735.132 92.471C735.851 92.5826 736.431 91.9191 737.157 91.8475C737.756 91.7889 738.292 92.1398 738.75 92.4739" stroke="#8D959C" stroke-linecap="round"/>
<path d="M728.109 93.9077C728.446 93.6833 728.789 93.4561 729.185 93.319C729.582 93.1819 730.045 93.1436 730.432 93.3004C730.866 93.4765 731.187 93.8837 731.667 93.9002C732.166 93.9167 732.524 93.5062 732.979 93.3333C733.296 93.2131 733.672 93.2131 733.988 93.3333C734.392 93.4868 734.697 93.8225 735.132 93.8898C735.851 94.0015 736.431 93.3372 737.157 93.266C737.756 93.207 738.292 93.5584 738.75 93.8927" stroke="#8D959C" stroke-linecap="round"/>
<path d="M687.278 22.6818C688.198 23.3221 689.313 23.6949 690.512 23.6949C693.646 23.6949 696.187 21.1539 696.187 18.0212C696.187 14.8884 693.646 12.3474 690.512 12.3474C687.379 12.3474 684.837 14.8884 684.837 18.0212C684.837 18.4629 684.89 18.8925 684.983 19.3059" stroke="#8D959C" stroke-linecap="round"/>
<path d="M777.766 78.305L783.073 44.2625H795.5V54.6836" stroke="#8D959C" stroke-linecap="round"/>
<path d="M789.47 44.2624V37.1702" stroke="#8D959C" stroke-linecap="round"/>
<path d="M523.1 75.4681V64.8298H526.647" stroke="#8D959C" stroke-linecap="round"/>
<path d="M553.4 73.3404V65.4941H552.184V40.7163H566.372" stroke="#8D959C" stroke-linecap="round"/>
<path d="M577.012 20.8582H583.397V47.0993" stroke="#8D959C" stroke-linecap="round"/>
<path d="M786.987 78.6595H774.219" stroke="#8D959C" stroke-linecap="round"/>
<path d="M608.934 47.454V31.142" stroke="#8D959C" stroke-linecap="round"/>
<path d="M551.475 63.766H539.416" stroke="#8D959C" stroke-linecap="round"/>
<path d="M1018.48 40.7163V24.1767C1018.48 22.7359 1019.76 21.5674 1021.33 21.5674" stroke="#8D959C" stroke-linecap="round"/>
<path d="M1031.28 47.8086H1062.89C1065.06 47.8086 1066.83 49.5594 1066.83 51.7194V56.3192" stroke="#8D959C" stroke-linecap="round"/>
<path d="M1063.98 77.5957V59.6459C1063.98 58.9313 1064.22 58.2689 1064.61 57.7282C1065.22 56.8767 1066.24 56.3191 1067.39 56.3191H1077.79H1090.29" stroke="#8D959C" stroke-linecap="round"/>
<path d="M1090.29 76.1774V41.6434C1090.29 38.6477 1091.52 35.931 1093.51 33.9687C1095.55 31.9584 1098.39 30.7326 1101.51 30.7892C1107.56 30.8988 1112.33 35.939 1112.33 41.8903V56.9125" stroke="#8D959C" stroke-linecap="round"/>
<path d="M1030.57 21.5673V13.0566H1023.58C1021.94 13.0566 1020.62 14.4078 1020.62 16.0743V21.5673" stroke="#8D959C" stroke-linecap="round"/>
<path d="M980.805 64.8297V56.8637C980.805 54.2128 983.022 52.0637 985.757 52.0637H988.625" stroke="#8D959C" stroke-linecap="round"/>
<path d="M993.602 64.8298V52.0482V42.844H988.625V51.8456" stroke="#8D959C" stroke-linecap="round"/>
<path d="M1093.13 42.1347V42.1347C1093.13 37.4346 1096.95 33.624 1101.66 33.624C1106.38 33.624 1110.2 37.4346 1110.2 42.1347" stroke="#8D959C" stroke-linecap="round"/>
<path d="M1095.27 42.1347V42.1347C1095.27 38.6092 1097.97 35.7517 1101.31 35.7517C1104.65 35.7517 1107.35 38.6092 1107.35 42.1347" stroke="#8D959C" stroke-linecap="round"/>
<path d="M1022.04 51.3546V24.8628C1022.04 24.2182 1022.5 23.6951 1023.07 23.6951H1023.14C1023.71 23.6951 1024.17 24.2182 1024.17 24.8628V39.1283V44.54" stroke="#8D959C" stroke-linecap="round"/>
<path d="M1026.3 38.5887V24.9002C1026.3 24.235 1026.77 23.6951 1027.34 23.6951H1027.4C1027.97 23.6951 1028.44 24.235 1028.44 24.9002V34.0379" stroke="#8D959C" stroke-linecap="round"/>
<path d="M1067.54 74.0496V67.4764C1067.54 63.2726 1071.04 59.8652 1075.36 59.8652V70.0438" stroke="#8D959C" stroke-linecap="round"/>
<path fill-rule="evenodd" clip-rule="evenodd" d="M1086.44 62.7021H1079.92C1079.36 62.7021 1078.91 62.2315 1078.91 61.6506V61.626C1078.91 61.0451 1079.36 60.5745 1079.92 60.5745H1086.44C1087 60.5745 1087.45 61.0451 1087.45 61.626V61.6506C1087.45 62.2315 1087 62.7021 1086.44 62.7021Z" stroke="#8D959C" stroke-linecap="round"/>
<path fill-rule="evenodd" clip-rule="evenodd" d="M1086.44 66.2483H1079.92C1079.36 66.2483 1078.91 65.7776 1078.91 65.1968V65.1721C1078.91 64.5912 1079.36 64.1206 1079.92 64.1206H1086.44C1087 64.1206 1087.45 64.5912 1087.45 65.1721V65.1968C1087.45 65.7776 1087 66.2483 1086.44 66.2483Z" stroke="#8D959C" stroke-linecap="round"/>
<path fill-rule="evenodd" clip-rule="evenodd" d="M1086.44 69.7944H1079.92C1079.36 69.7944 1078.91 69.3238 1078.91 68.7429V68.7182C1078.91 68.1374 1079.36 67.6667 1079.92 67.6667H1086.44C1087 67.6667 1087.45 68.1374 1087.45 68.7182V68.7429C1087.45 69.3238 1087 69.7944 1086.44 69.7944Z" stroke="#8D959C" stroke-linecap="round"/>
<path fill-rule="evenodd" clip-rule="evenodd" d="M1086.44 73.3405H1079.92C1079.36 73.3405 1078.91 72.8699 1078.91 72.2891V72.2644C1078.91 71.6835 1079.36 71.2129 1079.92 71.2129H1086.44C1087 71.2129 1087.45 71.6835 1087.45 72.2644V72.2891C1087.45 72.8699 1087 73.3405 1086.44 73.3405Z" stroke="#8D959C" stroke-linecap="round"/>
<path d="M1160.67 88.5887H1157.83" stroke="#8D959C" stroke-linecap="round"/>
<path d="M1120.42 87.5248C1115.68 85.6902 1112.33 81.1813 1112.33 75.9126V60.2461V57.0283H1142.9" stroke="#8D959C" stroke-linecap="round"/>
<path d="M1123.7 88.5249C1124.18 88.61 1124.67 88.6526 1125.16 88.6526H1127.26" stroke="#8D959C" stroke-linecap="round"/>
<path d="M1132.95 88.5887H1142.39H1145.74" stroke="#8D959C" stroke-linecap="round"/>
<path d="M1142.9 60.5744H1112.33V57.0283" stroke="#8D959C" stroke-linecap="round"/>
<path fill-rule="evenodd" clip-rule="evenodd" d="M1094.2 81.8511V81.8511C1093.61 81.8511 1093.13 81.4025 1093.13 80.849V45.9738C1093.13 45.4202 1093.61 44.9717 1094.2 44.9717C1094.79 44.9717 1095.27 45.4202 1095.27 45.9738V80.849C1095.27 81.4025 1094.79 81.8511 1094.2 81.8511Z" stroke="#8D959C" stroke-linecap="round"/>
<path fill-rule="evenodd" clip-rule="evenodd" d="M1099.18 81.8511V81.8511C1098.59 81.8511 1098.11 81.4025 1098.11 80.849V45.9738C1098.11 45.4202 1098.59 44.9717 1099.18 44.9717C1099.76 44.9717 1100.24 45.4202 1100.24 45.9738V80.849C1100.24 81.4025 1099.76 81.8511 1099.18 81.8511Z" stroke="#8D959C" stroke-linecap="round"/>
<path fill-rule="evenodd" clip-rule="evenodd" d="M1104.15 81.8511V81.8511C1103.56 81.8511 1103.09 81.4025 1103.09 80.849V45.9738C1103.09 45.4202 1103.56 44.9717 1104.15 44.9717C1104.74 44.9717 1105.22 45.4202 1105.22 45.9738V80.849C1105.22 81.4025 1104.74 81.8511 1104.15 81.8511Z" stroke="#8D959C" stroke-linecap="round"/>
<path fill-rule="evenodd" clip-rule="evenodd" d="M1109.13 81.8511V81.8511C1108.54 81.8511 1108.06 81.4025 1108.06 80.849V45.9738C1108.06 45.4202 1108.54 44.9717 1109.13 44.9717C1109.72 44.9717 1110.2 45.4202 1110.2 45.9738V80.849C1110.2 81.4025 1109.72 81.8511 1109.13 81.8511Z" stroke="#8D959C" stroke-linecap="round"/>
<path d="M1101.31 35.7517V34.3333" stroke="#8D959C" stroke-linecap="round"/>
<path d="M1105.93 37.1702L1106.64 36.4609" stroke="#8D959C" stroke-linecap="round"/>
<path d="M1096.69 37.1702L1095.98 36.4609" stroke="#8D959C" stroke-linecap="round"/>
<path fill-rule="evenodd" clip-rule="evenodd" d="M1045.5 80.4325H1039.1V59.4366C1039.1 56.1483 1041.93 53.4822 1045.42 53.4822H1045.5V80.4325Z" stroke="#8D959C" stroke-linecap="round"/>
<path fill-rule="evenodd" clip-rule="evenodd" d="M1053.32 80.4325H1046.92V53.4822H1047.01C1050.49 53.4822 1053.32 56.1483 1053.32 59.4366V80.4325Z" stroke="#8D959C" stroke-linecap="round"/>
<path fill-rule="evenodd" clip-rule="evenodd" d="M1114.68 22.3659C1114.95 19.7908 1117.06 17.812 1119.58 17.812C1121.29 17.812 1122.8 18.7108 1123.68 20.086L1123.82 20.2958L1124.07 20.3136C1125.15 20.3911 1126.1 20.9423 1126.74 21.7772L1126.94 22.0464L1127.27 21.9559C1127.52 21.8864 1127.78 21.8475 1128.04 21.8475C1128.44 21.8475 1128.82 21.9286 1129.17 22.0771C1129.33 22.1449 1129.5 22.1248 1129.64 22.0387C1129.85 22.1559 1130.04 22.2953 1130.21 22.4529C1130.16 22.6109 1130.19 22.7915 1130.3 22.9292C1130.69 23.3913 1130.94 23.9721 1131.01 24.6134H1111.71C1112.28 23.684 1113.21 23.0155 1114.28 22.8042L1114.64 22.7329L1114.68 22.3659ZM1131.42 22.7766C1131.83 23.4556 1132.06 24.2671 1132.02 25.1324L1132.01 25.3221L1131.88 25.4585L1131.88 25.4598L1131.88 25.4611L1131.73 25.6134H1131.52H1110.91H1110.18L1110.44 24.9331C1111.01 23.4647 1112.22 22.3256 1113.74 21.9066C1114.21 19.026 1116.63 16.812 1119.58 16.812C1121.57 16.812 1123.31 17.8146 1124.39 19.3406C1125.55 19.4872 1126.58 20.0679 1127.33 20.9164C1127.56 20.8722 1127.8 20.8475 1128.04 20.8475C1128.4 20.8475 1128.74 20.8956 1129.07 20.9868C1129.51 20.5636 1130.07 20.2482 1130.69 20.0802C1131.1 18.1872 1132.91 16.812 1135.01 16.812C1136.44 16.812 1137.72 17.4402 1138.53 18.4266C1139.35 18.5275 1140.08 18.8855 1140.62 19.4162C1140.78 19.3926 1140.94 19.38 1141.1 19.38C1142.76 19.38 1144.19 20.6549 1144.11 22.2973L1144.09 22.5452L1143.92 22.6658L1143.8 22.7766H1143.6H1131.42ZM1131.62 20.5539C1131.8 19.0457 1133.22 17.812 1135.01 17.812C1136.22 17.812 1137.26 18.3732 1137.86 19.199L1138 19.3885L1138.24 19.4032C1138.99 19.4505 1139.65 19.7913 1140.07 20.2866L1140.27 20.5197L1140.57 20.4456C1140.74 20.4031 1140.92 20.38 1141.1 20.38C1142.09 20.38 1142.86 21.0009 1143.06 21.7766H1130.96C1130.77 21.5962 1130.56 21.434 1130.34 21.2923C1130.6 21.1478 1130.9 21.0426 1131.21 20.9873L1131.58 20.9233L1131.62 20.5539Z" fill="#8D959C"/>
<path fill-rule="evenodd" clip-rule="evenodd" d="M1244.1 28.7485C1244.37 26.1761 1246.49 24.1951 1249.04 24.1951C1250.77 24.1951 1252.29 25.0967 1253.18 26.4702L1253.32 26.6784L1253.57 26.6961C1254.65 26.7738 1255.61 27.3207 1256.25 28.1487C1256.42 28.3667 1256.74 28.406 1256.96 28.2365C1257.17 28.067 1257.21 27.7529 1257.04 27.5349C1256.28 26.5577 1255.16 25.8823 1253.88 25.7228C1252.8 24.1978 1251.04 23.1951 1249.04 23.1951C1246.08 23.1951 1243.63 25.4045 1243.15 28.2876C1241.63 28.7054 1240.4 29.845 1239.83 31.3148L1239.56 31.9965H1240.3H1256.41C1256.69 31.9965 1256.91 31.7726 1256.91 31.4965C1256.91 31.2203 1256.69 30.9965 1256.41 30.9965H1241.1C1241.68 30.0672 1242.61 29.3976 1243.7 29.1863L1244.06 29.1156L1244.1 28.7485ZM1264.19 23.1951C1261.91 23.1951 1259.96 24.7337 1259.71 26.8161C1259.67 27.0902 1259.87 27.3395 1260.14 27.3728C1260.42 27.4062 1260.67 27.211 1260.7 26.9369C1260.88 25.4378 1262.33 24.1951 1264.19 24.1951C1265.43 24.1951 1266.5 24.7595 1267.12 25.5871L1267.26 25.7732L1267.49 25.7868C1268.28 25.8327 1268.95 26.1754 1269.39 26.6734L1269.59 26.9019L1269.88 26.8282C1270.06 26.7852 1270.24 26.7631 1270.43 26.7631C1271.46 26.7631 1272.25 27.391 1272.45 28.1596H1260.57C1260.29 28.1596 1260.07 28.3835 1260.07 28.6596C1260.07 28.9357 1260.29 29.1596 1260.57 29.1596H1272.99C1273.07 29.1596 1273.16 29.1415 1273.25 29.0888C1273.34 29.0364 1273.4 28.966 1273.43 28.9022C1273.47 28.8414 1273.48 28.7855 1273.49 28.7482C1273.49 28.7285 1273.49 28.7108 1273.5 28.6958L1273.5 28.6818C1273.58 27.0254 1272.11 25.7631 1270.43 25.7631C1270.26 25.7631 1270.1 25.7752 1269.93 25.7997C1269.37 25.2638 1268.62 24.9061 1267.78 24.8085C1266.95 23.8193 1265.64 23.1951 1264.19 23.1951Z" fill="#8D959C"/>
<path fill-rule="evenodd" clip-rule="evenodd" d="M969.652 25.9119C969.922 23.337 972.025 21.3582 974.553 21.3582C976.258 21.3582 977.765 22.2569 978.652 23.6322L978.788 23.8419L979.037 23.8598C980.117 23.9372 981.071 24.4884 981.708 25.3233L981.913 25.5925L982.239 25.5021C982.49 25.4325 982.746 25.3937 983.011 25.3937C983.412 25.3937 983.791 25.4747 984.137 25.6231C984.295 25.691 984.469 25.671 984.604 25.5848C984.816 25.702 985.011 25.8414 985.183 25.9991C985.131 26.1571 985.159 26.3376 985.273 26.4753C985.655 26.9375 985.909 27.5183 985.975 28.1596H966.679C967.253 27.2302 968.178 26.5617 969.251 26.3503L969.613 26.279L969.652 25.9119ZM986.388 26.3227C986.801 27.0017 987.025 27.8133 986.988 28.6785L986.978 28.9274L986.787 29.0586C986.782 29.0628 986.776 29.0671 986.77 29.0713L986.641 29.1596H986.486H965.875H965.146L965.409 28.4793C965.976 27.0108 967.193 25.8718 968.705 25.4527C969.174 22.5721 971.601 20.3582 974.553 20.3582C976.535 20.3582 978.282 21.3608 979.356 22.8867C980.522 23.0334 981.552 23.614 982.295 24.4626C982.525 24.4183 982.764 24.3937 983.011 24.3937C983.367 24.3937 983.714 24.4417 984.044 24.5329C984.483 24.1098 985.04 23.7944 985.66 23.6263C986.069 21.7333 987.877 20.3582 989.983 20.3582C991.41 20.3582 992.689 20.9863 993.498 21.9727C994.316 22.0736 995.048 22.4316 995.593 22.9624C995.749 22.9387 995.908 22.9261 996.071 22.9261C997.729 22.9261 999.154 24.201 999.075 25.8434L999.063 26.0913L998.887 26.2119L998.766 26.3227H998.572H986.388ZM986.594 24.0999C986.773 22.5919 988.188 21.3582 989.983 21.3582C991.186 21.3582 992.229 21.9194 992.832 22.7451L992.971 22.9346L993.205 22.9493C993.961 22.9967 994.614 23.3375 995.04 23.8326L995.241 24.0659L995.54 23.9918C995.711 23.9492 995.888 23.9261 996.071 23.9261C997.06 23.9261 997.829 24.547 998.028 25.3227H985.924C985.736 25.1424 985.528 24.9802 985.305 24.8385C985.57 24.694 985.866 24.5888 986.183 24.5334L986.55 24.4695L986.594 24.0999Z" fill="#8D959C"/>
<path fill-rule="evenodd" clip-rule="evenodd" d="M1024.88 80.9878V88.9433H970.852V81.0567C971.019 80.8456 971.212 80.6353 971.421 80.4326H1024.37C1024.56 80.6105 1024.73 80.7974 1024.88 80.9878Z" stroke="#8D959C" stroke-linecap="round"/>
<path d="M971.562 80.4326C971.302 80.6629 971.061 80.9024 970.852 81.1418" stroke="#8D959C" stroke-linecap="round"/>
<path d="M1024.88 81.1418C1024.67 80.8985 1024.43 80.6599 1024.17 80.4326" stroke="#8D959C" stroke-linecap="round"/>
<path fill-rule="evenodd" clip-rule="evenodd" d="M1024.17 80.4325H971.562C972.779 79.1542 974.592 77.9991 976.874 77.0011C982.014 74.7545 989.514 73.3403 997.867 73.3403C1001.23 73.3403 1004.46 73.5697 1007.46 73.9901C1015.18 75.0777 1021.32 77.447 1024.17 80.4325Z" stroke="#8D959C" stroke-linecap="round"/>
<path d="M1024.17 80.4326C1024.43 80.6487 1024.66 80.8688 1024.84 81.0952C1024.86 81.1085 1024.87 81.1252 1024.88 81.1418" stroke="#8D959C" stroke-linecap="round"/>
<path d="M970.141 81.8511C970.151 81.8364 970.162 81.8218 970.177 81.8072C970.367 81.5805 970.594 81.3608 970.852 81.1418" stroke="#8D959C" stroke-linecap="round"/>
<path d="M1077.85 56.3193V30.7874" stroke="#8D959C" stroke-linecap="round"/>
<path fill-rule="evenodd" clip-rule="evenodd" d="M1061.85 30.7873L1068.71 22.9858H1072.66L1079.62 30.7873H1061.85Z" stroke="#8D959C" stroke-linecap="round"/>
<path fill-rule="evenodd" clip-rule="evenodd" d="M983.648 59.156H985.07V55.6099H983.648V59.156Z" stroke="#8D959C" stroke-linecap="round"/>
<path fill-rule="evenodd" clip-rule="evenodd" d="M983.648 64.1206H985.07V60.5745H983.648V64.1206Z" stroke="#8D959C" stroke-linecap="round"/>
<path fill-rule="evenodd" clip-rule="evenodd" d="M986.492 64.1206H987.914V60.5745H986.492V64.1206Z" stroke="#8D959C" stroke-linecap="round"/>
<path fill-rule="evenodd" clip-rule="evenodd" d="M1008.53 47.0993H1009.95V43.5532H1008.53V47.0993Z" stroke="#8D959C" stroke-linecap="round"/>
<path fill-rule="evenodd" clip-rule="evenodd" d="M1012.09 47.0993H1013.51V43.5532H1012.09V47.0993Z" stroke="#8D959C" stroke-linecap="round"/>
<path fill-rule="evenodd" clip-rule="evenodd" d="M1008.53 52.7731H1009.95V49.2271H1008.53V52.7731Z" stroke="#8D959C" stroke-linecap="round"/>
<path fill-rule="evenodd" clip-rule="evenodd" d="M1012.09 52.7731H1013.51V49.2271H1012.09V52.7731Z" stroke="#8D959C" stroke-linecap="round"/>
<path fill-rule="evenodd" clip-rule="evenodd" d="M1008.53 58.4467H1009.95V54.9006H1008.53V58.4467Z" stroke="#8D959C" stroke-linecap="round"/>
<path fill-rule="evenodd" clip-rule="evenodd" d="M1012.09 58.4467H1013.51V54.9006H1012.09V58.4467Z" stroke="#8D959C" stroke-linecap="round"/>
<path d="M1216.12 76.8865H1212.57V76.9793V88.234" stroke="#8D959C" stroke-linecap="round"/>
<path d="M1241.72 86.1063V54.9006H1254.52" stroke="#8D959C" stroke-linecap="round"/>
<path d="M1216.12 79.0142V71.0483C1216.12 68.3974 1218.34 66.2483 1221.08 66.2483H1223.95" stroke="#8D959C" stroke-linecap="round"/>
<path d="M1228.92 81.851V66.1564V59.5153C1228.92 58.1418 1227.84 57.0283 1226.51 57.0283H1226.36C1225.03 57.0283 1223.95 58.1418 1223.95 59.5153V66.0906" stroke="#8D959C" stroke-linecap="round"/>
<path fill-rule="evenodd" clip-rule="evenodd" d="M1218.97 73.3405H1220.39V69.7944H1218.97V73.3405Z" stroke="#8D959C" stroke-linecap="round"/>
<path fill-rule="evenodd" clip-rule="evenodd" d="M1218.97 78.3049H1220.39V74.7588H1218.97V78.3049Z" stroke="#8D959C" stroke-linecap="round"/>
<path fill-rule="evenodd" clip-rule="evenodd" d="M1222.52 78.3049H1223.95V74.7588H1222.52V78.3049Z" stroke="#8D959C" stroke-linecap="round"/>
<path fill-rule="evenodd" clip-rule="evenodd" d="M1244.56 61.2836H1245.98V57.7375H1244.56V61.2836Z" stroke="#8D959C" stroke-linecap="round"/>
<path fill-rule="evenodd" clip-rule="evenodd" d="M1247.41 61.2836H1248.83V57.7375H1247.41V61.2836Z" stroke="#8D959C" stroke-linecap="round"/>
<path fill-rule="evenodd" clip-rule="evenodd" d="M1244.56 66.9575H1245.98V63.4114H1244.56V66.9575Z" stroke="#8D959C" stroke-linecap="round"/>
<path fill-rule="evenodd" clip-rule="evenodd" d="M1247.41 66.9575H1248.83V63.4114H1247.41V66.9575Z" stroke="#8D959C" stroke-linecap="round"/>
<path fill-rule="evenodd" clip-rule="evenodd" d="M1244.56 72.6313H1245.98V69.0852H1244.56V72.6313Z" stroke="#8D959C" stroke-linecap="round"/>
<path fill-rule="evenodd" clip-rule="evenodd" d="M1247.41 72.6313H1248.83V69.0852H1247.41V72.6313Z" stroke="#8D959C" stroke-linecap="round"/>
<path fill-rule="evenodd" clip-rule="evenodd" d="M1161.03 54.5461V88.5887H1157.47V62.7021L1146.81 55.9645V88.5887H1142.9V41.4255L1161.03 54.5461Z" stroke="#8D959C" stroke-linecap="round"/>
<path d="M1201.2 79.3688H1173.47" stroke="#8D959C" stroke-linecap="round"/>
<path d="M1212.57 79.3688H1208.3" stroke="#8D959C" stroke-linecap="round"/>
<path d="M1212.57 88.5887H1208.3" stroke="#8D959C" stroke-linecap="round"/>
<path d="M1166.36 92.4894H1161.38V83.2695H1166.36" stroke="#8D959C" stroke-linecap="round"/>
<path d="M1201.2 88.5887H1173.47" stroke="#8D959C" stroke-linecap="round"/>
<path d="M1017.06 65.1844H1031.99" stroke="#8D959C" stroke-linecap="round"/>
<path d="M1017.06 66.6029H1031.99" stroke="#8D959C" stroke-linecap="round"/>
<path d="M1017.06 68.0214H1031.99" stroke="#8D959C" stroke-linecap="round"/>
<path d="M1273 88.9174L1263.85 60.1062C1262.87 56.8291 1262.27 53.455 1262.04 50.0486L1260.77 31.1334L1260.48 26.9067L1259.41 10.9292H1258L1256.88 27.6219L1256.64 31.1334L1255.37 50.0486C1255.14 53.455 1254.53 56.8291 1253.55 60.1062L1243.85 92.4895" stroke="#8D959C" stroke-linecap="round"/>
<path fill-rule="evenodd" clip-rule="evenodd" d="M1258.78 6.67375H1258.07L1258.43 0.290771L1258.78 6.67375Z" stroke="#8D959C" stroke-linecap="round"/>
<path fill-rule="evenodd" clip-rule="evenodd" d="M1263.76 8.80149C1263.76 9.3895 1263.51 9.92334 1263.12 10.3067C1262.73 10.6893 1262.19 10.9291 1261.59 10.9291H1255.27C1254.07 10.9291 1253.09 9.9775 1253.09 8.80149C1253.09 8.21348 1253.34 7.67963 1253.73 7.29627C1254.12 6.91367 1254.67 6.67383 1255.27 6.67383H1261.59C1262.79 6.67383 1263.76 7.62547 1263.76 8.80149Z" stroke="#8D959C" stroke-linecap="round"/>
<path d="M1255.94 8.4469H1262.34" stroke="#8D959C" stroke-linecap="round"/>
<path fill-rule="evenodd" clip-rule="evenodd" d="M1166.36 92.4893H1173.47V77.5957H1166.36V92.4893Z" stroke="#8D959C" stroke-linecap="round"/>
<path fill-rule="evenodd" clip-rule="evenodd" d="M1201.2 92.4893H1208.3V77.5957H1201.2V92.4893Z" stroke="#8D959C" stroke-linecap="round"/>
<path d="M1166.36 77.5957L1172.76 85.2438L1166.36 92.4893" stroke="#8D959C" stroke-linecap="round"/>
<path d="M1201.2 77.5957L1207.59 85.2438L1201.2 92.4893" stroke="#8D959C" stroke-linecap="round"/>
<path d="M1173.47 77.5957L1167.07 85.2438L1173.47 92.4893" stroke="#8D959C" stroke-linecap="round"/>
<path d="M1208.3 77.5957L1201.91 85.2438L1208.3 92.4893" stroke="#8D959C" stroke-linecap="round"/>
<path d="M1201.2 85.7518H1173.47" stroke="#8D959C" stroke-linecap="round"/>
<path d="M1161.38 88.2341V86.1064H1166.36" stroke="#8D959C" stroke-linecap="round"/>
<path d="M1212.57 88.2341V86.1064H1208.3" stroke="#8D959C" stroke-linecap="round"/>
<path d="M935.305 64.8298C935.494 64.8415 935.686 64.861 935.875 64.8805C939.093 65.2348 941.745 67.011 944.68 68.2022C948.817 69.8845 953.102 71.2163 957.65 71.2128C964.345 71.2085 970.469 68.284 977.25 69.1329" stroke="#8D959C" stroke-linecap="round"/>
<path d="M909.711 86.8157C911.692 82.8659 913.689 78.8921 916.327 75.3313C918.97 71.7705 922.311 68.6111 926.395 66.7865C927.649 66.2288 928.972 65.8041 930.328 65.5391" stroke="#8D959C" stroke-linecap="round"/>
<path d="M1364 84.688C1355.13 71.7352 1339.98 64.7269 1324.48 68.8451C1319.27 70.2289 1314.16 71.9994 1309.22 74.1335C1304.39 76.2179 1299.85 79.2864 1294.61 80.2555C1284.3 82.1611 1273.29 76.3344 1266.6 68.9126" stroke="#8D959C" stroke-linecap="round"/>
<path d="M1132.22 88.2341C1133.51 88.9901 1134.37 90.3344 1134.37 91.8676C1134.37 93.9056 1132.85 95.6096 1130.81 96.0356" stroke="#8D959C" stroke-linecap="round"/>
<path d="M1127.86 88.2341C1126.65 88.9627 1125.84 90.2572 1125.84 91.7332C1125.84 93.7628 1127.37 95.4505 1129.38 95.7899L1129.39 95.9686V100.291" stroke="#8D959C" stroke-linecap="round"/>
<path d="M1127.74 88.2341C1127.01 87.6122 1126.55 86.6996 1126.55 85.6843C1126.55 84.2825 1127.43 83.0781 1128.68 82.5603" stroke="#8D959C" stroke-linecap="round"/>
<path d="M1130.81 82.5603C1132.07 83.0781 1132.95 84.2821 1132.95 85.6839C1132.95 86.6992 1132.48 87.6122 1131.75 88.2341" stroke="#8D959C" stroke-linecap="round"/>
<path d="M1130.73 82.5603C1131.21 82.1952 1131.52 81.636 1131.52 81.0087C1131.52 79.9064 1130.57 79.0142 1129.39 79.0142C1128.21 79.0142 1127.26 79.9064 1127.26 81.0087C1127.26 81.636 1127.57 82.1952 1128.05 82.5603" stroke="#8D959C" stroke-linecap="round"/>
<path d="M1129.75 80.4326V93.9078" stroke="#8D959C" stroke-linecap="round"/>
<path d="M1129.39 91.7803L1131.52 89.6526" stroke="#8D959C" stroke-linecap="round"/>
<path d="M1129.39 86.1064L1127.97 84.688" stroke="#8D959C" stroke-linecap="round"/>
<path d="M1329.15 88.2341C1330.44 88.9901 1331.3 90.3344 1331.3 91.8676C1331.3 93.9056 1329.78 95.6096 1327.74 96.0356" stroke="#8D959C" stroke-linecap="round"/>
<path d="M1324.79 88.2341C1323.58 88.9627 1322.77 90.2572 1322.77 91.7332C1322.77 93.7628 1324.3 95.4505 1326.31 95.7899L1326.32 95.9686L1326.32 101" stroke="#8D959C" stroke-linecap="round"/>
<path d="M1324.67 88.2341C1323.94 87.6122 1323.48 86.6996 1323.48 85.6843C1323.48 84.2825 1324.36 83.0781 1325.61 82.5603" stroke="#8D959C" stroke-linecap="round"/>
<path d="M1328.45 82.5603C1329.71 83.0781 1330.59 84.2821 1330.59 85.6839C1330.59 86.6992 1330.12 87.6122 1329.39 88.2341" stroke="#8D959C" stroke-linecap="round"/>
<path d="M1328.37 82.5603C1328.85 82.1952 1329.16 81.636 1329.16 81.0087C1329.16 79.9064 1328.21 79.0142 1327.03 79.0142C1325.85 79.0142 1324.9 79.9064 1324.9 81.0087C1324.9 81.636 1325.21 82.1952 1325.69 82.5603" stroke="#8D959C" stroke-linecap="round"/>
<path d="M1326.68 80.4326V93.9078" stroke="#8D959C" stroke-linecap="round"/>
<path d="M1327.03 91.7803L1329.16 89.6526" stroke="#8D959C" stroke-linecap="round"/>
<path d="M1327.03 86.1064L1325.61 84.688" stroke="#8D959C" stroke-linecap="round"/>
<path d="M1337.83 91.0708C1338.6 91.6207 1339.12 92.5986 1339.12 93.7132C1339.12 95.1953 1338.21 96.4346 1336.98 96.7446" stroke="#8D959C" stroke-linecap="round"/>
<path d="M1335.05 91.0708C1334.08 91.5967 1333.43 92.5319 1333.43 93.5979C1333.43 95.0638 1334.65 96.2823 1336.26 96.5281L1336.27 96.6569L1336.27 100.291" stroke="#8D959C" stroke-linecap="round"/>
<path d="M1334.94 91.7802C1334.45 91.3138 1334.14 90.6295 1334.14 89.8677C1334.14 88.8168 1334.73 87.9134 1335.56 87.5249" stroke="#8D959C" stroke-linecap="round"/>
<path d="M1337.7 87.5249C1338.53 87.9134 1339.12 88.8164 1339.12 89.8677C1339.12 90.6291 1338.81 91.3134 1338.32 91.7802" stroke="#8D959C" stroke-linecap="round"/>
<path d="M1337.17 87.5249C1337.49 87.233 1337.7 86.7852 1337.7 86.2838C1337.7 85.4023 1337.06 84.688 1336.27 84.688C1335.49 84.688 1334.85 85.4023 1334.85 86.2838C1334.85 86.7852 1335.06 87.233 1335.38 87.5249" stroke="#8D959C" stroke-linecap="round"/>
<path d="M1336.63 86.1064V96.0355" stroke="#8D959C" stroke-linecap="round"/>
<path d="M1336.27 93.9077L1337.7 92.4893" stroke="#8D959C" stroke-linecap="round"/>
<path d="M1336.27 89.6526L1335.56 88.9434" stroke="#8D959C" stroke-linecap="round"/>
<path d="M1123.13 91.0708C1123.9 91.6207 1124.41 92.5986 1124.41 93.7132C1124.41 95.1953 1123.5 96.4346 1122.28 96.7446" stroke="#8D959C" stroke-linecap="round"/>
<path d="M1120.35 91.0708C1119.37 91.6244 1118.73 92.6088 1118.73 93.7308C1118.73 95.2738 1119.95 96.5563 1121.56 96.8151L1121.57 96.9507L1121.57 99.5814" stroke="#8D959C" stroke-linecap="round"/>
<path d="M1120.23 91.7802C1119.75 91.3138 1119.44 90.6295 1119.44 89.8677C1119.44 88.8168 1120.02 87.9134 1120.86 87.5249" stroke="#8D959C" stroke-linecap="round"/>
<path d="M1122.28 87.5249C1123.12 87.9134 1123.7 88.8164 1123.7 89.8677C1123.7 90.6291 1123.39 91.3134 1122.91 91.7802" stroke="#8D959C" stroke-linecap="round"/>
<path d="M1122.46 87.5249C1122.79 87.233 1122.99 86.7852 1122.99 86.2838C1122.99 85.4023 1122.36 84.688 1121.57 84.688C1120.78 84.688 1120.15 85.4023 1120.15 86.2838C1120.15 86.7852 1120.35 87.233 1120.68 87.5249" stroke="#8D959C" stroke-linecap="round"/>
<path d="M1121.93 86.1064V96.0355" stroke="#8D959C" stroke-linecap="round"/>
<path d="M1121.57 93.9077L1122.99 92.4893" stroke="#8D959C" stroke-linecap="round"/>
<path d="M1121.57 89.6526L1120.86 88.9434" stroke="#8D959C" stroke-linecap="round"/>
<path d="M949.51 88.2341C950.799 88.9901 951.656 90.3344 951.656 91.8676C951.656 93.9056 950.137 95.6096 948.102 96.0356" stroke="#8D959C" stroke-linecap="round"/>
<path d="M944.44 88.2341C943.224 88.9222 942.414 90.1448 942.414 91.5389C942.414 93.4556 943.944 95.0496 945.957 95.3701L945.969 95.5389L945.967 100.291" stroke="#8D959C" stroke-linecap="round"/>
<path d="M945.029 88.2341C944.298 87.6122 943.836 86.6996 943.836 85.6843C943.836 84.2825 944.715 83.0781 945.969 82.5603" stroke="#8D959C" stroke-linecap="round"/>
<path d="M948.102 82.5603C949.356 83.0781 950.234 84.2821 950.234 85.6839C950.234 86.6992 949.772 87.6122 949.042 88.2341" stroke="#8D959C" stroke-linecap="round"/>
<path d="M948.019 82.5603C948.503 82.1952 948.812 81.636 948.812 81.0087C948.812 79.9064 947.858 79.0142 946.68 79.0142C945.502 79.0142 944.547 79.9064 944.547 81.0087C944.547 81.636 944.856 82.1952 945.34 82.5603" stroke="#8D959C" stroke-linecap="round"/>
<path d="M947.035 80.4326V93.9078" stroke="#8D959C" stroke-linecap="round"/>
<path d="M947.391 92.4895L949.523 90.3618" stroke="#8D959C" stroke-linecap="round"/>
<path d="M946.68 86.1064L945.258 84.688" stroke="#8D959C" stroke-linecap="round"/>
<path fill-rule="evenodd" clip-rule="evenodd" d="M1139.34 66.9575H1118.67C1117.13 66.9575 1115.88 65.7299 1115.88 64.215V64.1206H1139.34V66.9575Z" stroke="#8D959C" stroke-linecap="round"/>
<path fill-rule="evenodd" clip-rule="evenodd" d="M1139.34 71.9221H1118.67C1117.13 71.9221 1115.88 70.6945 1115.88 69.1796V69.0852H1139.34V71.9221Z" stroke="#8D959C" stroke-linecap="round"/>
<path fill-rule="evenodd" clip-rule="evenodd" d="M1139.34 76.8864H1118.67C1117.13 76.8864 1115.88 75.6589 1115.88 74.144V74.0496H1139.34V76.8864Z" stroke="#8D959C" stroke-linecap="round"/>
<path d="M1024.88 82.2057H970.852" stroke="#8D959C" stroke-linecap="round"/>
<path d="M1031.64 91.071V88.2341" stroke="#8D959C" stroke-linecap="round"/>
<path d="M1033.29 88.234H1036.26L1033.43 77.4675C1033.23 76.6928 1032.18 76.6928 1031.97 77.4675L1029.15 88.234H1031.72" stroke="#8D959C" stroke-linecap="round"/>
<path d="M1033.77 89.6526V88.2341" stroke="#8D959C" stroke-linecap="round"/>
<path d="M1057.94 91.071V88.2341" stroke="#8D959C" stroke-linecap="round"/>
<path d="M1058.88 88.234H1061.85L1059.03 77.4675C1058.82 76.6928 1057.77 76.6928 1057.57 77.4675L1054.74 88.234H1057.32" stroke="#8D959C" stroke-linecap="round"/>
<path d="M1059.36 89.6526V88.2341" stroke="#8D959C" stroke-linecap="round"/>
<path d="M932.816 68.3759V66.2483" stroke="#8D959C" stroke-linecap="round"/>
<path d="M933.226 66.2482H935.305L933.329 58.8458C933.186 58.3138 932.447 58.3138 932.305 58.8458L930.328 66.2482H932.131" stroke="#8D959C" stroke-linecap="round"/>
<path d="M1182.71 91.071C1183.05 90.8466 1183.39 90.6194 1183.79 90.4823C1184.19 90.3453 1184.65 90.307 1185.04 90.4637C1185.47 90.6398 1185.8 91.0471 1186.28 91.0635C1186.78 91.08 1187.14 90.6695 1187.59 90.4966C1187.91 90.3764 1188.29 90.3764 1188.6 90.4966C1189.01 90.6502 1189.31 90.9859 1189.75 91.0531C1190.47 91.1648 1191.05 90.5006 1191.78 90.4294C1192.38 90.3703 1192.92 90.7217 1193.38 91.0556" stroke="#8D959C" stroke-linecap="round"/>
<path d="M1182.71 92.4893C1183.05 92.265 1183.39 92.0378 1183.79 91.9005C1184.19 91.7635 1184.65 91.7252 1185.04 91.8819C1185.47 92.0579 1185.8 92.4649 1186.28 92.4814C1186.78 92.4982 1187.14 92.0879 1187.59 91.9148C1187.91 91.7946 1188.29 91.7946 1188.6 91.9151C1189.01 92.0682 1189.31 92.4038 1189.75 92.471C1190.47 92.5826 1191.05 91.9191 1191.78 91.8475C1192.38 91.7889 1192.92 92.1398 1193.38 92.4739" stroke="#8D959C" stroke-linecap="round"/>
<path d="M1182.71 93.9077C1183.05 93.6833 1183.39 93.4561 1183.79 93.319C1184.19 93.1819 1184.65 93.1436 1185.04 93.3004C1185.47 93.4765 1185.8 93.8837 1186.28 93.9002C1186.78 93.9167 1187.14 93.5062 1187.59 93.3333C1187.91 93.2131 1188.29 93.2131 1188.6 93.3333C1189.01 93.4868 1189.31 93.8225 1189.75 93.8898C1190.47 94.0015 1191.05 93.3372 1191.78 93.266C1192.38 93.207 1192.92 93.5584 1193.38 93.8927" stroke="#8D959C" stroke-linecap="round"/>
<path d="M1141.79 22.6818C1142.71 23.3221 1143.83 23.6949 1145.03 23.6949C1148.17 23.6949 1150.72 21.1539 1150.72 18.0212C1150.72 14.8884 1148.17 12.3474 1145.03 12.3474C1141.89 12.3474 1139.34 14.8884 1139.34 18.0212C1139.34 18.4629 1139.4 18.8925 1139.49 19.3059" stroke="#8D959C" stroke-linecap="round"/>
<path d="M1232.48 78.305L1237.8 44.2625H1250.25V54.6836" stroke="#8D959C" stroke-linecap="round"/>
<path d="M1244.21 44.2624V37.1702" stroke="#8D959C" stroke-linecap="round"/>
<path d="M977.25 75.4681V64.8298H980.805" stroke="#8D959C" stroke-linecap="round"/>
<path d="M1007.62 73.3404V65.4941H1006.4V40.7163H1020.62" stroke="#8D959C" stroke-linecap="round"/>
<path d="M1031.28 20.8582H1037.68V47.0993" stroke="#8D959C" stroke-linecap="round"/>
<path d="M1241.72 78.6595H1228.92" stroke="#8D959C" stroke-linecap="round"/>
<path d="M1063.27 47.454V31.142" stroke="#8D959C" stroke-linecap="round"/>
<path d="M1005.69 63.766H993.602" stroke="#8D959C" stroke-linecap="round"/>
</svg>
