<svg width="119" height="63" viewBox="0 0 119 63" fill="none" xmlns="http://www.w3.org/2000/svg">
<path fill-rule="evenodd" clip-rule="evenodd" d="M33.6553 62.6321H38.8731V41.8901H33.6553V62.6321Z" fill="#0076D5"/>
<path fill-rule="evenodd" clip-rule="evenodd" d="M80.9481 47.8336C80.7349 47.7225 79.0524 46.7261 76.5567 46.7261C73.1834 46.7261 70.843 49.0803 70.843 52.2585C70.843 55.3405 73.0842 57.7942 76.5567 57.7942C79.0111 57.7942 80.7184 56.8177 80.9481 56.6934V62.2622C80.292 62.4463 78.5103 63 76.1931 63C70.3241 63 65.1724 58.9415 65.1724 52.2585C65.1724 46.0629 69.8332 41.522 76.1931 41.522C78.6392 41.522 80.4539 42.1188 80.9481 42.2647V47.8336Z" fill="#0076D5"/>
<path fill-rule="evenodd" clip-rule="evenodd" d="M26.4825 47.8336C26.2726 47.7225 24.5951 46.7261 22.0994 46.7261C18.7194 46.7261 16.3808 49.0803 16.3808 52.2585C16.3808 55.3405 18.6236 57.7942 22.0994 57.7942C24.5521 57.7942 26.2594 56.8177 26.4825 56.6934V62.2622C25.8346 62.4463 24.0563 63 21.7258 63C15.8601 63 10.7134 58.9415 10.7134 52.2585C10.7134 46.0629 15.3759 41.522 21.7258 41.522C24.1802 41.522 25.9933 42.1188 26.4825 42.2647V47.8336Z" fill="#0076D5"/>
<path fill-rule="evenodd" clip-rule="evenodd" d="M97.3618 46.8024C94.2661 46.8024 91.9688 49.2461 91.9688 52.2585C91.9688 55.2759 94.2661 57.7163 97.3618 57.7163C100.454 57.7163 102.76 55.2759 102.76 52.2585C102.76 49.2461 100.454 46.8024 97.3618 46.8024ZM108.29 52.2585C108.29 58.1921 103.722 63 97.3618 63C91.0036 63 86.4419 58.1921 86.4419 52.2585C86.4419 46.3332 91.0036 41.522 97.3618 41.522C103.722 41.522 108.29 46.3332 108.29 52.2585Z" fill="#0076D5"/>
<path fill-rule="evenodd" clip-rule="evenodd" d="M58.6619 46.6037C58.5843 46.5805 56.3877 45.972 54.5829 45.972C52.4921 45.972 51.355 46.6733 51.355 47.6714C51.355 48.9347 52.8888 49.374 53.7482 49.6459L55.1878 50.1068C58.5727 51.1861 60.1164 53.5122 60.1164 56.0404C60.1164 61.2495 55.5481 63.0003 51.555 63.0003C48.78 63.0003 46.1802 62.488 45.924 62.4333V57.6602C46.3835 57.7779 48.5717 58.4311 50.8526 58.4311C53.4474 58.4311 54.6424 57.6702 54.6424 56.4947C54.6424 55.4436 53.6094 54.8368 52.3136 54.429C51.9979 54.3245 51.5236 54.1753 51.2013 54.0675C48.2941 53.1474 45.8711 51.4332 45.8711 47.9997C45.8711 44.1202 48.7668 41.5156 53.5763 41.5156C56.1167 41.5156 58.5082 42.134 58.6619 42.1755V46.6037Z" fill="#0076D5"/>
<path fill-rule="evenodd" clip-rule="evenodd" d="M5.18146 19.5982C5.18146 18.1691 4.0179 17.0103 2.5899 17.0103C1.16521 17.0103 0 18.1691 0 19.5982V25.0428C0 26.4818 1.16521 27.6407 2.5899 27.6407C4.0179 27.6407 5.18146 26.4818 5.18146 25.0428V19.5982Z" fill="#0076D5"/>
<path fill-rule="evenodd" clip-rule="evenodd" d="M19.4105 12.4526C19.4105 11.0219 18.2469 9.86133 16.8206 9.86133C15.3942 9.86133 14.229 11.0219 14.229 12.4526V25.0427C14.229 26.4817 15.3942 27.6406 16.8206 27.6406C18.2469 27.6406 19.4105 26.4817 19.4105 25.0427V12.4526Z" fill="#0076D5"/>
<path fill-rule="evenodd" clip-rule="evenodd" d="M33.6404 2.6744C33.6404 1.24529 32.4752 0.0864258 31.0489 0.0864258C29.6225 0.0864258 28.459 1.24529 28.459 2.6744V30.2187C28.459 31.6561 29.6225 32.8149 31.0489 32.8149C32.4752 32.8149 33.6404 31.6561 33.6404 30.2187V2.6744Z" fill="#0076D5"/>
<path fill-rule="evenodd" clip-rule="evenodd" d="M47.8694 12.4526C47.8694 11.0219 46.7059 9.86133 45.2779 9.86133C43.8515 9.86133 42.688 11.0219 42.688 12.4526V25.0427C42.688 26.4817 43.8515 27.6406 45.2779 27.6406C46.7059 27.6406 47.8694 26.4817 47.8694 25.0427V12.4526Z" fill="#0076D5"/>
<path fill-rule="evenodd" clip-rule="evenodd" d="M62.0814 19.5982C62.0814 18.1691 60.9261 17.0103 59.5081 17.0103C58.0817 17.0103 56.9165 18.1691 56.9165 19.5982V25.0428C56.9165 26.4818 58.0817 27.6407 59.5081 27.6407C60.9261 27.6407 62.0814 26.4818 62.0814 25.0428V19.5982Z" fill="#0076D5"/>
<path fill-rule="evenodd" clip-rule="evenodd" d="M76.3187 12.4526C76.3187 11.0219 75.1634 9.86133 73.7354 9.86133C72.3124 9.86133 71.1538 11.0219 71.1538 12.4526V25.0427C71.1538 26.4817 72.3124 27.6406 73.7354 27.6406C75.1634 27.6406 76.3187 26.4817 76.3187 25.0427V12.4526Z" fill="#0076D5"/>
<path fill-rule="evenodd" clip-rule="evenodd" d="M90.5575 2.6744C90.5575 1.24529 89.4022 0.0864258 87.9759 0.0864258C86.5479 0.0864258 85.3926 1.24529 85.3926 2.6744V30.2187C85.3926 31.6561 86.5479 32.8149 87.9759 32.8149C89.4022 32.8149 90.5575 31.6561 90.5575 30.2187V2.6744Z" fill="#0076D5"/>
<path fill-rule="evenodd" clip-rule="evenodd" d="M104.793 12.4526C104.793 11.0219 103.637 9.86133 102.178 9.86133C100.751 9.86133 99.5962 11.0219 99.5962 12.4526V25.0427C99.5962 26.4817 100.751 27.6406 102.178 27.6406C103.637 27.6406 104.793 26.4817 104.793 25.0427V12.4526Z" fill="#0076D5"/>
<path fill-rule="evenodd" clip-rule="evenodd" d="M119 19.5982C119 18.1691 117.841 17.0103 116.418 17.0103C114.99 17.0103 113.832 18.1691 113.832 19.5982V25.0428C113.832 26.4818 114.99 27.6407 116.418 27.6407C117.841 27.6407 119 26.4818 119 25.0428V19.5982Z" fill="#0076D5"/>
</svg>
