<svg width="16" height="16" viewBox="0 0 16 16" fill="none" xmlns="http://www.w3.org/2000/svg">
<path fill-rule="evenodd" clip-rule="evenodd" d="M8 0C12.418 0 16 3.582 16 8C16 12.418 12.418 16 8 16C3.582 16 0 12.418 0 8C0 3.582 3.582 0 8 0ZM6.5 9.79289L4.85355 8.14645C4.65829 7.95118 4.34171 7.95118 4.14645 8.14645C3.95118 8.34171 3.95118 8.65829 4.14645 8.85355L6.14645 10.8536C6.34171 11.0488 6.65829 11.0488 6.85355 10.8536L11.3536 6.35355C11.5488 6.15829 11.5488 5.84171 11.3536 5.64645C11.1583 5.45118 10.8417 5.45118 10.6464 5.64645L6.5 9.79289Z" fill="#00AB50"/>
</svg>
