<svg width="14" height="14" viewBox="0 0 14 14" fill="none" xmlns="http://www.w3.org/2000/svg">
<path fill-rule="evenodd" clip-rule="evenodd" d="M6.646 10.853L2.647 6.854C2.451 6.658 2.451 6.342 2.647 6.147C2.842 5.951 3.158 5.951 3.354 6.147L6.5 9.293V0.5C6.5 0.224 6.724 0 7 0C7.276 0 7.5 0.224 7.5 0.5V9.293L10.647 6.147C10.842 5.951 11.158 5.951 11.354 6.147C11.549 6.342 11.549 6.658 11.354 6.854L7.354 10.853C7.308 10.899 7.253 10.936 7.191 10.962C7.13 10.987 7.065 11 7 11C6.935 11 6.87 10.987 6.809 10.962C6.748 10.936 6.692 10.899 6.646 10.853ZM0.538462 13.0001H13.4615C13.7588 13.0001 14 13.2241 14 13.5001C14 13.7761 13.7588 14.0001 13.4615 14.0001H0.538462C0.241231 14.0001 0 13.7761 0 13.5001C0 13.2241 0.241231 13.0001 0.538462 13.0001Z" fill="#1170CF"/>
</svg>
